<?xml version="1.0" encoding="utf-8"?>
<!-- Generator: Adobe Illustrator 24.3.0, SVG Export Plug-In . SVG Version: 6.00 Build 0)  -->
<svg version="1.1" id="Layer_2" xmlns="http://www.w3.org/2000/svg" xmlns:xlink="http://www.w3.org/1999/xlink" x="0px" y="0px"
	 viewBox="0 0 841.89 595.28" style="enable-background:new 0 0 841.89 595.28;" xml:space="preserve">
<style type="text/css">
	.st0{fill:url(#SVGID_1_);}
	.st1{fill:url(#SVGID_2_);}
	.st2{fill:url(#SVGID_3_);}
	.st3{fill:url(#SVGID_4_);}
	.st4{fill:url(#SVGID_5_);}
	.st5{fill:url(#SVGID_6_);}
	.st6{fill:url(#SVGID_7_);}
	.st7{fill:#F3911A;}
	.st8{fill:#213A8F;}
	.st9{fill-rule:evenodd;clip-rule:evenodd;fill:url(#SVGID_8_);}
</style>
<g>
	<g>
		<linearGradient id="SVGID_1_" gradientUnits="userSpaceOnUse" x1="221.0513" y1="324.3938" x2="445.3672" y2="324.3938">
			<stop  offset="0.0596" style="stop-color:#FFFFFF"/>
			<stop  offset="0.0773" style="stop-color:#FDEDDA"/>
			<stop  offset="0.1021" style="stop-color:#FBD8AD"/>
			<stop  offset="0.1288" style="stop-color:#F9C586"/>
			<stop  offset="0.1568" style="stop-color:#F7B564"/>
			<stop  offset="0.1867" style="stop-color:#F5A849"/>
			<stop  offset="0.219" style="stop-color:#F49E34"/>
			<stop  offset="0.255" style="stop-color:#F49625"/>
			<stop  offset="0.2976" style="stop-color:#F3921D"/>
			<stop  offset="0.3639" style="stop-color:#F3911A"/>
			<stop  offset="0.9945" style="stop-color:#E7A401"/>
		</linearGradient>
		<path class="st0" d="M254.53,338.17c-2.1,0.98-6.31,2.01-11.68,2.01c-10.07,0-19.7-5.74-19.7-17.88c0-9.09,7.19-18.19,21.2-18.19
			c5.65,0,8.8,1.19,10.07,1.76l-0.89,2.12c-2.21-1.03-5.53-1.76-9.02-1.76c-12.12,0-18.54,6.87-18.54,16.28
			c0,8.58,6.14,15.5,17.88,15.5c3.65,0,7.31-0.67,9.85-1.86L254.53,338.17z"/>
		<linearGradient id="SVGID_2_" gradientUnits="userSpaceOnUse" x1="221.0513" y1="324.3938" x2="445.3672" y2="324.3938">
			<stop  offset="0.0596" style="stop-color:#FFFFFF"/>
			<stop  offset="0.0773" style="stop-color:#FDEDDA"/>
			<stop  offset="0.1021" style="stop-color:#FBD8AD"/>
			<stop  offset="0.1288" style="stop-color:#F9C586"/>
			<stop  offset="0.1568" style="stop-color:#F7B564"/>
			<stop  offset="0.1867" style="stop-color:#F5A849"/>
			<stop  offset="0.219" style="stop-color:#F49E34"/>
			<stop  offset="0.255" style="stop-color:#F49625"/>
			<stop  offset="0.2976" style="stop-color:#F3921D"/>
			<stop  offset="0.3639" style="stop-color:#F3911A"/>
			<stop  offset="0.9945" style="stop-color:#E7A401"/>
		</linearGradient>
		<path class="st1" d="M261.35,302.57h2.71v17.21h0.11c0.83-1.55,2.27-3.05,4.1-4.03c1.72-0.98,3.82-1.6,5.98-1.6
			c2.55,0,10.35,1.03,10.35,11.26v14.16h-2.71v-14.05c0-4.8-2.21-9.14-8.36-9.14c-4.21,0-7.75,2.79-9.02,5.84
			c-0.33,0.78-0.44,1.5-0.44,2.64v14.72h-2.71V302.57z"/>
		<linearGradient id="SVGID_3_" gradientUnits="userSpaceOnUse" x1="221.0513" y1="324.3938" x2="445.3672" y2="324.3938">
			<stop  offset="0.0596" style="stop-color:#FFFFFF"/>
			<stop  offset="0.0773" style="stop-color:#FDEDDA"/>
			<stop  offset="0.1021" style="stop-color:#FBD8AD"/>
			<stop  offset="0.1288" style="stop-color:#F9C586"/>
			<stop  offset="0.1568" style="stop-color:#F7B564"/>
			<stop  offset="0.1867" style="stop-color:#F5A849"/>
			<stop  offset="0.219" style="stop-color:#F49E34"/>
			<stop  offset="0.255" style="stop-color:#F49625"/>
			<stop  offset="0.2976" style="stop-color:#F3921D"/>
			<stop  offset="0.3639" style="stop-color:#F3911A"/>
			<stop  offset="0.9945" style="stop-color:#E7A401"/>
		</linearGradient>
		<path class="st2" d="M310.16,339.56l-0.44-3.82h-0.11c-1.38,1.91-4.76,4.44-9.63,4.44c-6.03,0-8.47-3.82-8.47-6.82
			c0-5.63,5.59-9.3,17.99-9.14v-0.57c0-1.86-0.44-7.44-7.53-7.39c-2.66,0-5.42,0.62-7.64,2.07l-0.89-1.81
			c2.93-1.81,6.2-2.38,8.74-2.38c9.02,0,10.02,6.51,10.02,10.44v8.99c0,2.01,0.11,3.98,0.44,5.99H310.16z M309.5,326.33
			c-7.03-0.21-15.11,0.83-15.11,6.56c0,3.51,2.71,5.22,5.81,5.22c5.15,0,7.91-2.84,8.97-5.06c0.22-0.52,0.33-1.03,0.33-1.45V326.33z
			"/>
		<linearGradient id="SVGID_4_" gradientUnits="userSpaceOnUse" x1="221.0513" y1="324.3938" x2="445.3672" y2="324.3938">
			<stop  offset="0.0596" style="stop-color:#FFFFFF"/>
			<stop  offset="0.0773" style="stop-color:#FDEDDA"/>
			<stop  offset="0.1021" style="stop-color:#FBD8AD"/>
			<stop  offset="0.1288" style="stop-color:#F9C586"/>
			<stop  offset="0.1568" style="stop-color:#F7B564"/>
			<stop  offset="0.1867" style="stop-color:#F5A849"/>
			<stop  offset="0.219" style="stop-color:#F49E34"/>
			<stop  offset="0.255" style="stop-color:#F49625"/>
			<stop  offset="0.2976" style="stop-color:#F3921D"/>
			<stop  offset="0.3639" style="stop-color:#F3911A"/>
			<stop  offset="0.9945" style="stop-color:#E7A401"/>
		</linearGradient>
		<path class="st3" d="M321.51,302.57h2.71v36.99h-2.71V302.57z"/>
		<linearGradient id="SVGID_5_" gradientUnits="userSpaceOnUse" x1="221.0513" y1="324.3938" x2="445.3672" y2="324.3938">
			<stop  offset="0.0596" style="stop-color:#FFFFFF"/>
			<stop  offset="0.0773" style="stop-color:#FDEDDA"/>
			<stop  offset="0.1021" style="stop-color:#FBD8AD"/>
			<stop  offset="0.1288" style="stop-color:#F9C586"/>
			<stop  offset="0.1568" style="stop-color:#F7B564"/>
			<stop  offset="0.1867" style="stop-color:#F5A849"/>
			<stop  offset="0.219" style="stop-color:#F49E34"/>
			<stop  offset="0.255" style="stop-color:#F49625"/>
			<stop  offset="0.2976" style="stop-color:#F3921D"/>
			<stop  offset="0.3639" style="stop-color:#F3911A"/>
			<stop  offset="0.9945" style="stop-color:#E7A401"/>
		</linearGradient>
		<path class="st4" d="M334.13,327.16c0,7.23,4.93,10.85,11.23,10.85c4.59,0,6.81-0.83,8.52-1.55l0.72,2.01
			c-0.94,0.41-3.93,1.71-9.52,1.71c-8.25,0-13.61-5.22-13.61-12.4c0-8.42,5.76-13.64,13.28-13.64c9.85,0,11.57,8.16,11.57,11.47
			c0,0.78,0,1.14-0.11,1.55H334.13z M353.5,325.15c0.06-2.58-1.11-8.94-9.08-8.94c-6.75,0-9.57,5.17-10.13,8.94H353.5z"/>
		<linearGradient id="SVGID_6_" gradientUnits="userSpaceOnUse" x1="221.0513" y1="324.3938" x2="445.3672" y2="324.3938">
			<stop  offset="0.0596" style="stop-color:#FFFFFF"/>
			<stop  offset="0.0773" style="stop-color:#FDEDDA"/>
			<stop  offset="0.1021" style="stop-color:#FBD8AD"/>
			<stop  offset="0.1288" style="stop-color:#F9C586"/>
			<stop  offset="0.1568" style="stop-color:#F7B564"/>
			<stop  offset="0.1867" style="stop-color:#F5A849"/>
			<stop  offset="0.219" style="stop-color:#F49E34"/>
			<stop  offset="0.255" style="stop-color:#F49625"/>
			<stop  offset="0.2976" style="stop-color:#F3921D"/>
			<stop  offset="0.3639" style="stop-color:#F3911A"/>
			<stop  offset="0.9945" style="stop-color:#E7A401"/>
		</linearGradient>
		<path class="st5" d="M362.58,336.2c1.6,0.93,3.98,1.86,6.64,1.86c4.65,0,6.7-2.27,6.7-4.81c0-2.89-2.1-4.29-6.25-5.53
			c-4.81-1.45-7.19-3.77-7.19-6.72c0-3.51,2.99-6.87,8.74-6.87c2.6,0,4.87,0.67,6.42,1.65l-1.05,2.07c-0.89-0.57-2.82-1.6-5.87-1.6
			c-3.65,0-5.59,2.07-5.59,4.44c0,2.79,2.27,3.88,6.2,5.12c4.87,1.55,7.25,3.51,7.25,7.23c0,4.03-3.54,7.13-9.57,7.13
			c-2.82,0-5.42-0.72-7.42-1.81L362.58,336.2z"/>
		<linearGradient id="SVGID_7_" gradientUnits="userSpaceOnUse" x1="221.0513" y1="324.3938" x2="445.3672" y2="324.3938">
			<stop  offset="0.0596" style="stop-color:#FFFFFF"/>
			<stop  offset="0.0773" style="stop-color:#FDEDDA"/>
			<stop  offset="0.1021" style="stop-color:#FBD8AD"/>
			<stop  offset="0.1288" style="stop-color:#F9C586"/>
			<stop  offset="0.1568" style="stop-color:#F7B564"/>
			<stop  offset="0.1867" style="stop-color:#F5A849"/>
			<stop  offset="0.219" style="stop-color:#F49E34"/>
			<stop  offset="0.255" style="stop-color:#F49625"/>
			<stop  offset="0.2976" style="stop-color:#F3921D"/>
			<stop  offset="0.3639" style="stop-color:#F3911A"/>
			<stop  offset="0.9945" style="stop-color:#E7A401"/>
		</linearGradient>
		<path class="st6" d="M386.27,302.57h2.71v17.21h0.11c0.83-1.55,2.27-3.05,4.1-4.03c1.72-0.98,3.82-1.6,5.98-1.6
			c2.55,0,10.35,1.03,10.35,11.26v14.16h-2.71v-14.05c0-4.8-2.21-9.14-8.36-9.14c-4.21,0-7.75,2.79-9.02,5.84
			c-0.33,0.78-0.44,1.5-0.44,2.64v14.72h-2.71V302.57z"/>
	</g>
	<g>
		<path class="st7" d="M254.53,338.17c-2.1,0.98-6.31,2.01-11.68,2.01c-10.07,0-19.7-5.74-19.7-17.88c0-9.09,7.19-18.19,21.2-18.19
			c5.65,0,8.8,1.19,10.07,1.76l-0.89,2.12c-2.21-1.03-5.53-1.76-9.02-1.76c-12.12,0-18.54,6.87-18.54,16.28
			c0,8.58,6.14,15.5,17.88,15.5c3.65,0,7.31-0.67,9.85-1.86L254.53,338.17z"/>
		<path class="st7" d="M261.35,302.57h2.71v17.21h0.11c0.83-1.55,2.27-3.05,4.1-4.03c1.72-0.98,3.82-1.6,5.98-1.6
			c2.55,0,10.35,1.03,10.35,11.26v14.16h-2.71v-14.05c0-4.8-2.21-9.14-8.36-9.14c-4.21,0-7.75,2.79-9.02,5.84
			c-0.33,0.78-0.44,1.5-0.44,2.64v14.72h-2.71V302.57z"/>
		<path class="st7" d="M310.16,339.56l-0.44-3.82h-0.11c-1.38,1.91-4.76,4.44-9.63,4.44c-6.03,0-8.47-3.82-8.47-6.82
			c0-5.63,5.59-9.3,17.99-9.14v-0.57c0-1.86-0.44-7.44-7.53-7.39c-2.66,0-5.42,0.62-7.64,2.07l-0.89-1.81
			c2.93-1.81,6.2-2.38,8.74-2.38c9.02,0,10.02,6.51,10.02,10.44v8.99c0,2.01,0.11,3.98,0.44,5.99H310.16z M309.5,326.33
			c-7.03-0.21-15.11,0.83-15.11,6.56c0,3.51,2.71,5.22,5.81,5.22c5.15,0,7.91-2.84,8.97-5.06c0.22-0.52,0.33-1.03,0.33-1.45V326.33z
			"/>
		<path class="st7" d="M321.51,302.57h2.71v36.99h-2.71V302.57z"/>
		<path class="st7" d="M334.13,327.16c0,7.23,4.93,10.85,11.23,10.85c4.59,0,6.81-0.83,8.52-1.55l0.72,2.01
			c-0.94,0.41-3.93,1.71-9.52,1.71c-8.25,0-13.61-5.22-13.61-12.4c0-8.42,5.76-13.64,13.28-13.64c9.85,0,11.57,8.16,11.57,11.47
			c0,0.78,0,1.14-0.11,1.55H334.13z M353.5,325.15c0.06-2.58-1.11-8.94-9.08-8.94c-6.75,0-9.57,5.17-10.13,8.94H353.5z"/>
		<path class="st7" d="M362.58,336.2c1.6,0.93,3.98,1.86,6.64,1.86c4.65,0,6.7-2.27,6.7-4.81c0-2.89-2.1-4.29-6.25-5.53
			c-4.81-1.45-7.19-3.77-7.19-6.72c0-3.51,2.99-6.87,8.74-6.87c2.6,0,4.87,0.67,6.42,1.65l-1.05,2.07c-0.89-0.57-2.82-1.6-5.87-1.6
			c-3.65,0-5.59,2.07-5.59,4.44c0,2.79,2.27,3.88,6.2,5.12c4.87,1.55,7.25,3.51,7.25,7.23c0,4.03-3.54,7.13-9.57,7.13
			c-2.82,0-5.42-0.72-7.42-1.81L362.58,336.2z"/>
		<path class="st7" d="M386.27,302.57h2.71v17.21h0.11c0.83-1.55,2.27-3.05,4.1-4.03c1.72-0.98,3.82-1.6,5.98-1.6
			c2.55,0,10.35,1.03,10.35,11.26v14.16h-2.71v-14.05c0-4.8-2.21-9.14-8.36-9.14c-4.21,0-7.75,2.79-9.02,5.84
			c-0.33,0.78-0.44,1.5-0.44,2.64v14.72h-2.71V302.57z"/>
	</g>
</g>
<g>
	<path class="st8" d="M323.12,369.79c-0.46-7.59-1.04-17.47-1.04-22.94h-0.13c-1.76,5.47-3.78,11.39-6.58,19.14l-10.17,27.95h-2.41
		l-9.52-27.57c-2.74-7.97-4.76-14.05-6.19-19.52h-0.13c-0.2,5.92-0.52,15.26-1.11,23.69l-1.56,23.39h-3.13l3.52-51.19h3.65
		l10.56,30.53c2.22,6.38,3.91,11.7,5.22,16.33h0.13c1.17-4.33,2.93-9.49,5.41-16.25l11.08-30.61h3.78l3.13,51.19h-3.13
		L323.12,369.79z"/>
	<path class="st8" d="M337.78,375.71c0,10.63,5.8,15.95,13.24,15.95c5.41,0,8.02-1.21,10.04-2.28l0.85,2.96
		c-1.11,0.61-4.63,2.51-11.21,2.51c-9.72,0-16.04-7.67-16.04-18.23c0-12.38,6.78-20.05,15.65-20.05c11.61,0,13.63,12,13.63,16.86
		c0,1.14,0,1.67-0.13,2.28H337.78z M360.6,372.75c0.07-3.8-1.3-13.14-10.69-13.14c-7.95,0-11.28,7.59-11.93,13.14H360.6z"/>
	<path class="st8" d="M370.9,357.49l9.32,24.38c0.91,2.35,1.96,5.39,2.54,7.67h0.13c0.72-2.28,1.56-5.01,2.61-7.97l8.74-24.07h3.46
		l-11.08,29.47c-4.3,11.54-7.11,17.24-11.28,20.73c-2.67,2.28-5.09,3.11-5.74,3.27l-0.85-3.11c1.56-0.53,3.78-1.59,5.74-3.57
		c1.63-1.59,4.04-4.63,6-9.8c0.26-0.68,0.39-1.14,0.39-1.44s-0.13-0.84-0.46-1.67l-12.97-33.87H370.9z"/>
	<path class="st8" d="M431.66,339.56v45.57c0,2.96,0.07,5.85,0.26,8.81h-2.93l-0.2-7.59h-0.13c-1.83,4.56-6.13,8.51-12.65,8.51
		c-8.8,0-15.06-8.2-15.06-18.3c-0.07-11.85,6.98-19.97,15.78-19.97c6.52,0,10.24,4.03,11.61,6.99h0.13v-24H431.66z M428.47,372.14
		c0-1.06-0.13-2.51-0.39-3.57c-1.37-4.94-5.41-8.96-11.28-8.96c-7.43,0-12.65,6.61-12.65,16.48c0,8.2,4.11,15.72,12.58,15.72
		c5.35,0,10.04-4.25,11.35-10.02c0.26-0.99,0.39-1.97,0.39-3.19V372.14z"/>
	<path class="st8" d="M473.12,375.26c0,13.67-9.13,19.59-16.82,19.59c-9.32,0-16.1-7.97-16.1-18.76c0-12.15,7.82-19.52,16.56-19.52
		C466.8,356.58,473.12,364.85,473.12,375.26z M443.39,375.87c0,10.18,6.32,15.95,13.11,15.95c6.91,0,13.43-5.85,13.43-16.33
		c0-6.91-3.98-15.87-13.17-15.87C447.89,359.61,443.39,367.36,443.39,375.87z"/>
	<path class="st8" d="M511.66,375.26c0,13.67-9.13,19.59-16.82,19.59c-9.32,0-16.1-7.97-16.1-18.76c0-12.15,7.82-19.52,16.56-19.52
		C505.33,356.58,511.66,364.85,511.66,375.26z M481.92,375.87c0,10.18,6.32,15.95,13.11,15.95c6.91,0,13.43-5.85,13.43-16.33
		c0-6.91-3.98-15.87-13.17-15.87C486.42,359.61,481.92,367.36,481.92,375.87z"/>
	<path class="st8" d="M520.19,366.3c0-2.96-0.06-5.85-0.26-8.81h3l0.26,7.29h0.13c1.89-4.48,6.32-8.2,12.06-8.2
		c2.87,0,12.19,1.52,12.19,16.63v20.73h-3.2v-20.73c0-7.14-2.67-13.44-9.84-13.44c-5.02,0-9.19,4.03-10.63,8.66
		c-0.26,0.83-0.52,2.13-0.52,3.27v22.25h-3.2V366.3z"/>
</g>
<g>
	<linearGradient id="SVGID_8_" gradientUnits="userSpaceOnUse" x1="364.5699" y1="259.8387" x2="587.3224" y2="259.8387">
		<stop  offset="0" style="stop-color:#FFFFFF"/>
		<stop  offset="0" style="stop-color:#FDF0E0"/>
		<stop  offset="0" style="stop-color:#FBDCB7"/>
		<stop  offset="0" style="stop-color:#F9CA91"/>
		<stop  offset="0" style="stop-color:#F8BB71"/>
		<stop  offset="0" style="stop-color:#F6AE55"/>
		<stop  offset="0" style="stop-color:#F5A33F"/>
		<stop  offset="0" style="stop-color:#F49B2E"/>
		<stop  offset="0" style="stop-color:#F39523"/>
		<stop  offset="0" style="stop-color:#F3921C"/>
		<stop  offset="0" style="stop-color:#F3911A"/>
		<stop  offset="0.0803" style="stop-color:#EF9814"/>
		<stop  offset="0.225" style="stop-color:#EA9F0B"/>
		<stop  offset="0.4288" style="stop-color:#E8A304"/>
		<stop  offset="0.9945" style="stop-color:#E7A401"/>
	</linearGradient>
	<path class="st9" d="M475.95,166.42c-61.51,0-111.38,41.83-111.38,93.42c0,12.56,2.96,24.54,8.32,35.48
		c9.72-4.95,20.01-8.87,31.03-7.73c16.77,1.73,29.34,14.68,35.75,30.01c4.27,10.23,5.62,21.09,5.39,32.01
		c9.81,2.37,20.17,3.64,30.89,3.64c61.51,0,111.38-41.83,111.38-93.42S537.46,166.42,475.95,166.42z"/>
	<path class="st8" d="M529.16,197.52c-4.57,3.96-5.37,10.04-2.57,15.22c0.96,1.78,0.44,3.9-1.17,5.29l-16.42,14.21
		c-1.85,1.6-4.74,1.86-6.95,0.64c-6.22-3.44-13.38-4.88-20.14-4.27c-2.42,0.22-4.72-0.92-5.69-2.85l-0.85-1.69
		c-0.95-1.88-0.47-4.06,1.21-5.51l0,0c4.09-3.54,5.31-8.88,3.18-13.95c-0.51-1.22-2.04-1.94-3.42-1.61
		c-1.37,0.33-2.07,1.59-1.56,2.81c1.43,3.4,0.61,7-2.13,9.37c-4.03,3.49-10.92,3.23-15.36-0.58c-4.44-3.81-4.77-9.75-0.74-13.24
		c2.75-2.38,6.91-3.1,10.86-1.88c1.42,0.44,2.87-0.17,3.25-1.36c0.38-1.19-0.46-2.5-1.88-2.94c-5.88-1.81-12.07-0.74-16.16,2.8
		c-6,5.19-5.51,14.04,1.1,19.71c3.31,2.84,7.53,4.35,11.67,4.51c2.1,0.08,4,1.1,4.84,2.76l0.99,1.96c1.04,2.07,0.17,4.43-1.98,5.72
		c-1.24,0.75-2.41,1.59-3.51,2.54c-2.96,2.57-5.06,5.62-6.32,8.91c-0.84,2.21-3.43,3.56-6.09,3.21l-31.16-4.06
		c-2.27-0.3-4.05-1.78-4.59-3.7c-0.96-3.42-3.05-6.72-6.23-9.46c-8.55-7.35-21.83-7.85-29.6-1.12s-7.13,18.18,1.42,25.52
		c8.55,7.35,21.83,7.85,29.6,1.12c1.67-1.45,2.96-3.12,3.85-4.92c1-2,3.43-3.15,5.92-2.83l31.25,4.07c2.38,0.31,4.26,1.9,4.64,3.94
		c1.04,5.57,4.16,11.06,9.32,15.49c3.68,3.16,8.15,5.54,12.94,6.92c2.3,0.67,3.84,2.53,3.8,4.62l-0.3,15.14
		c-0.05,2.3-1.9,4.33-4.52,4.75c-4.3,0.69-8.32,2.42-11.54,5.21c-9.12,7.9-8.37,21.34,1.67,29.97s25.63,9.22,34.76,1.32
		c9.12-7.9,8.37-21.34-1.67-29.97c-2.89-2.48-6.24-4.3-9.77-5.44c-2.21-0.71-3.67-2.54-3.63-4.57l0.31-15.38
		c0.05-2.32,2.09-4.19,4.75-4.52c3.57-0.44,6.98-1.45,10.02-3c1.21-0.62,1.51-2.01,0.68-3.12c-0.83-1.1-2.49-1.5-3.69-0.88
		c-9.26,4.74-21.72,3.16-30.22-4.15c-9.96-8.55-10.7-21.89-1.66-29.72c9.05-7.83,24.51-7.25,34.46,1.31
		c8.59,7.38,10.33,18.13,4.93,26.05c-0.71,1.04-0.25,2.47,1.03,3.18c1.28,0.71,2.9,0.44,3.61-0.6c0.97-1.42,1.75-2.93,2.34-4.5
		c0.83-2.19,3.43-3.51,6.08-3.16l11.74,1.53c1.85,0.24,3.49,1.23,4.23,2.71c0.61,1.2,1.49,2.35,2.65,3.34
		c4.53,3.89,11.57,4.16,15.69,0.6c4.12-3.57,3.78-9.63-0.75-13.53c-4.53-3.89-11.57-4.16-15.69-0.6c-0.36,0.31-0.69,0.65-0.98,0.99
		c-1.21,1.44-3.26,2.16-5.29,1.9l-12.04-1.57c-2.39-0.31-4.26-1.93-4.65-3.99c-0.71-3.77-2.37-7.36-4.75-10.56
		c-1.43-1.92-1.2-4.44,0.68-6.06l16.41-14.21c1.61-1.39,4.06-1.85,6.13-1.03c6.02,2.4,13.06,1.69,17.64-2.27
		c6-5.19,5.51-14.04-1.1-19.71C545.41,192.71,535.16,192.32,529.16,197.52L529.16,197.52z M408.81,252.23
		c-5.8,5.02-15.71,4.65-22.1-0.84c-6.39-5.48-6.86-14.03-1.06-19.05c5.8-5.02,15.71-4.65,22.1,0.84
		C414.14,238.66,414.61,247.21,408.81,252.23z M500.61,335.92c-7.15,6.19-19.38,5.73-27.25-1.03c-7.87-6.76-8.46-17.31-1.31-23.5
		s19.38-5.73,27.25,1.04C507.17,319.19,507.76,329.73,500.61,335.92z M543.92,258.27c2.15-1.86,5.82-1.72,8.19,0.31
		s2.54,5.2,0.39,7.06c-2.15,1.86-5.82,1.72-8.19-0.31C541.95,263.29,541.77,260.13,543.92,258.27z M549.19,214.72
		c-4.03,3.49-10.92,3.23-15.36-0.58c-4.44-3.81-4.77-9.75-0.74-13.24c4.03-3.49,10.92-3.23,15.36,0.58S553.22,211.23,549.19,214.72z
		"/>
	<path class="st8" d="M404.01,243.13c0.29-0.6,0.35-1.31,0.19-2.04c-0.17-0.81-0.55-1.34-1.97-2.82c-0.6-0.62-1.22-1.19-1.54-1.87
		l-0.06-0.12c-0.19-0.4-0.4-0.85-0.34-1.15c0.06-0.31-0.22-0.63-0.62-0.72c-0.41-0.1-0.82,0.06-0.93,0.36l-3.95,10.16
		c-0.53-0.47-1.25-0.88-2.11-1.13c-2.11-0.61-4.22-0.08-4.71,1.18c-0.49,1.26,0.83,2.78,2.94,3.39c2.11,0.61,4.22,0.08,4.71-1.18
		l2.58-6.65c1.02,0.66,2.43,2,2.19,4.09c-0.14,0.08-0.45,1.98-0.11,1.84C400.56,246.36,403.56,244.07,404.01,243.13z"/>
	<g>
		<g>
			<path class="st8" d="M499.23,329.04C499.22,329.04,499.22,329.04,499.23,329.04l-4.8-3.15c-0.02-0.46-0.38-0.96-0.78-1.52
				c-0.47-0.65-4.13-6.07-5.26-7.73c-0.28-0.42-0.8-0.6-1.28-0.46c-0.94,0.27-1.89,0.28-2.69,0.02c-0.17-0.05-0.34-0.07-0.5-0.04
				c-0.23-0.36-0.37-0.8-0.53-1.27c-0.28-0.84-0.57-1.72-1.38-2.26l-1.84-1.25c-0.57-0.38-1.3-0.38-1.82,0.01
				c-6.84,5.13-6.69,5.06-6.7,5.07c-0.7,0.59-0.93,1.4-0.66,2.36c0.49,1.72,2.43,3.45,3.55,4.33c1.67,1.31,3.51,2.34,4.7,2.62
				c0.42,0.1,0.9,0.14,1.26-0.07c0.4,0.11,0.79,0.29,1.14,0.53c0.27,0.19,0.52,0.4,0.73,0.64c-0.11,0.58,0.31,1.34,1.31,2.34
				c0.77,0.78,1.77,1.57,2.37,1.98c3.11,2.12,8.05,3.97,11.05,3.49c1.08-0.17,3.19-1.04,3.25-2.19c0,0,0,0,0,0l0.06-1.13
				C500.45,330.45,500,329.57,499.23,329.04z M487.44,317.15c0.03-0.01,0.07-0.01,0.09,0.02l0.5,0.74l-0.67,0.25
				c-0.26,0.1-0.38,0.39-0.27,0.65c0.11,0.26,0.42,0.39,0.68,0.3l0.85-0.32c0.4,0.59,0.49,0.72,0.73,1.07l-0.66,0.25
				c-0.26,0.1-0.38,0.39-0.27,0.65c0.11,0.26,0.42,0.39,0.68,0.3l0.85-0.32l0.71,1.04c0,0,0.01,0.01,0.01,0.01l0.01,0.01l-0.65,0.24
				c-0.26,0.1-0.38,0.39-0.27,0.65c0.11,0.26,0.42,0.39,0.68,0.3l0.83-0.31c0.24,0.36,0.51,0.75,0.73,1.07l-0.73,0.27
				c-0.26,0.1-0.38,0.39-0.27,0.65c0.11,0.26,0.42,0.39,0.68,0.3l0.91-0.34c0.27,0.38,0.7,0.95,0.77,1.18
				c-0.07,0.03-0.23,0.09-0.58,0.12c-0.44,0.05-1.08,0.06-1.95,0.03c-0.16-0.01-0.33-0.1-0.44-0.25c-3.11-4.62-4.99-7.49-5.62-8.4
				C485.63,317.46,486.55,317.41,487.44,317.15z M479.92,324.82c-0.87,0.29-5.32-2.28-7.25-4.93c-1.46-2.01-0.36-2.57-0.33-2.66
				c0.15-0.12,0.27-0.23,0.38-0.3c0.19-0.13,0.29-0.18,0.83,0.16c0.65,0.42,1.73,1.33,3.5,2.84c0.76,0.65,1.62,1.38,2.66,2.26
				C480.37,322.76,480.61,323.94,479.92,324.82z M477.7,319.19c-1.87-1.6-2.9-2.47-3.62-2.93c-0.1-0.06-0.19-0.12-0.29-0.17
				l5.2-3.89c0.17-0.13,0.42-0.13,0.61,0l1.84,1.25c0.5,0.34,0.72,1.01,0.96,1.71c0.23,0.69,0.47,1.39,0.97,1.94
				c0.26,0.29,0.63,0.83,1.6,2.29c-0.08,0.01-0.16,0.02-0.24,0.04c-1.74,0.26-3.71,0.56-4.71,1.74
				C479.13,320.41,478.38,319.77,477.7,319.19z M482.2,325.4c-0.33-0.23-0.69-0.41-1.07-0.55c0.43-0.99,0.25-2.13-0.35-2.95
				c0.75-0.96,2.56-1.23,4.16-1.47c0.23-0.03,0.45-0.07,0.66-0.1c0.87,1.31,2.14,3.21,3.96,5.92c0.09,0.13,0.19,0.25,0.32,0.35
				c-0.05,0.47-0.21,0.91-0.48,1.3c-0.06,0.09-0.13,0.18-0.21,0.27c-1.96-1.1-2.53-1.59-3.93-1.9c-0.72-0.16-1.59-0.28-2.19-0.1
				C482.81,325.88,482.52,325.62,482.2,325.4z M499.32,332.38c0,0.07-0.15,0.34-0.79,0.69c-0.54,0.3-1.15,0.51-1.52,0.58
				c-2.67,0.52-7.48-1.3-10.4-3.29c-0.51-0.35-1.39-1.04-2.1-1.73c-0.98-0.95-1.11-1.38-1.13-1.5c0.2-0.07,0.84-0.07,1.69,0.12
				c1.25,0.28,1.71,0.72,3.92,1.95c0.04,0.03,0.07,0.05,0.11,0.06c7.85,4.34,9.68,3.02,10.17,3.08c0,0.01,0.01,0.01,0.02,0.03
				C499.32,332.38,499.32,332.38,499.32,332.38z M499.37,331.25l0,0.09c-0.32-0.03-0.63,0.05-0.88,0.09
				c-1.16,0.19-3.55-0.16-8.36-2.75c0.05-0.06,0.09-0.13,0.14-0.19c0.31-0.45,0.51-0.96,0.61-1.5c1.08,0.04,1.83,0.02,2.36-0.07
				c0.27-0.04,0.49-0.11,0.65-0.19l4.78,3.14C499.13,330.18,499.4,330.71,499.37,331.25z"/>
		</g>
	</g>
	<g>
		<g>
			<g>
				<path class="st8" d="M500.98,267.12c1.31-1.55,2.53-3.41,3.51-5.29c0.92-1.81,1.63-3.61,1.93-5.16
					c0.99-5.86-2.52-7.27-6.77-8.92c-1.33-0.55-2.77-1.12-4.1-1.87l-0.39-0.27c-1.15-0.95-2.11-2.04-3.02-3.04
					c-2.83-3.18-5.17-5.85-11.61-3.7c-1.69,0.59-3.6,1.56-5.41,2.76c-1.91,1.24-3.75,2.68-5.21,4.12c-1.61,1.6-2.53,2.93-2.89,4.07
					c-0.3,1.07-0.13,1.99,0.5,2.74c0.59,0.67,1.5,1.19,2.69,1.48c1.99,0.52,4.76,0.62,7.69,0.47c2.1-0.15,4.8,0.92,7.04,2.47
					s4.04,3.58,4.34,5.38c0.47,2.5,1.19,4.81,2.22,6.37c0.62,0.91,1.38,1.59,2.27,1.94c0.95,0.34,2.03,0.34,3.24-0.21
					C498.19,269.93,499.5,268.86,500.98,267.12z M496.12,269.08c-0.65,0.29-1.2,0.34-1.68,0.17c-0.52-0.2-1-0.64-1.44-1.26
					c-0.93-1.39-1.59-3.49-1.99-5.79c-0.33-2.25-2.35-4.65-4.94-6.44c-2.59-1.79-5.76-2.96-8.35-2.84c-2.73,0.14-5.28,0.08-6.99-0.4
					c-0.8-0.23-1.43-0.51-1.74-0.93c-0.3-0.36-0.37-0.84-0.18-1.45c0.26-0.83,1.04-1.94,2.5-3.38c1.37-1.34,3.12-2.74,4.96-3.92
					c1.72-1.1,3.46-2.02,5.02-2.54c5.11-1.74,7.1,0.49,9.44,3.16c0.96,1.09,1.96,2.2,3.22,3.23c0.04,0.03,0.04,0.03,0.08,0.05
					l0.43,0.29c0.04,0.03,0.04,0.03,0.08,0.05c1.48,0.86,2.96,1.46,4.4,2.03c3.51,1.41,6.5,2.57,5.65,7.25
					c-0.24,1.43-0.88,3.07-1.77,4.79c-0.96,1.79-2.09,3.56-3.34,5.04C498.19,267.74,497.1,268.64,496.12,269.08z"/>
			</g>
		</g>
		<g>
			<g>
				<path class="st8" d="M487.3,244.29c-0.54-0.32-1.17-0.55-1.87-0.53c-0.12-0.53-0.49-1.04-0.98-1.37l-0.05-0.04
					c-0.6-0.4-1.32-0.58-2.11-0.5c-0.79,0.08-1.49,0.44-1.93,0.9c-0.39,0.42-0.67,0.99-0.64,1.57c-0.68,0.11-1.24,0.42-1.69,0.83
					l-0.04,0.05c-0.48,0.51-0.7,1.11-0.61,1.77s0.51,1.25,1.06,1.61s1.17,0.55,1.92,0.52c0.13,0.57,0.49,1.08,1.03,1.4
					c0.6,0.4,1.32,0.58,2.11,0.5s1.49-0.44,1.93-0.9c0.39-0.46,0.67-0.99,0.64-1.57c0.68-0.11,1.29-0.42,1.68-0.88
					c0.48-0.51,0.7-1.11,0.61-1.77C488.28,245.24,487.85,244.65,487.3,244.29z M485.11,248.78c-0.28,0.02-0.53-0.05-0.76-0.21
					l-0.54-0.37c-0.39-0.27-0.98-0.25-1.31,0.11l-0.39,0.42c-0.18,0.19-0.41,0.3-0.68,0.33c-0.28,0.02-0.53-0.05-0.76-0.21
					c-0.23-0.16-0.37-0.36-0.4-0.6s0.04-0.45,0.22-0.65l0.42-0.45c0.3-0.32,0.26-0.83-0.16-1.12l-0.54-0.37
					c-0.23-0.16-0.37-0.36-0.4-0.6c-0.03-0.18,0.01-0.42,0.19-0.61c0.18-0.19,0.41-0.3,0.68-0.33c0,0,0,0,0.07-0.01
					c0.25,0.01,0.5,0.08,0.69,0.21l0.54,0.37c0.39,0.27,0.98,0.25,1.31-0.11l0.42-0.45c0.18-0.19,0.41-0.3,0.68-0.33
					s0.53,0.05,0.76,0.21s0.37,0.36,0.4,0.6c0,0,0,0,0.01,0.06c0,0.21-0.08,0.43-0.23,0.59l-0.42,0.45
					c-0.3,0.32-0.26,0.83,0.16,1.12l0.54,0.37c0.23,0.16,0.37,0.36,0.4,0.6c0.03,0.24-0.04,0.45-0.22,0.65
					C485.62,248.65,485.39,248.76,485.11,248.78z"/>
			</g>
		</g>
		<g>
			<g>
				
					<ellipse transform="matrix(0.0895 -0.996 0.996 0.0895 201.5528 728.0062)" class="st8" cx="498.96" cy="253.76" rx="1.47" ry="1.72"/>
			</g>
		</g>
		<g>
			<g>
				
					<ellipse transform="matrix(0.0895 -0.996 0.996 0.0895 193.0764 727.9457)" class="st8" cx="494.69" cy="258.37" rx="1.47" ry="1.72"/>
			</g>
		</g>
		<g>
			<g>
				
					<ellipse transform="matrix(0.0895 -0.996 0.996 0.0895 196.7004 723.5128)" class="st8" cx="494.08" cy="254.17" rx="1.47" ry="1.72"/>
			</g>
		</g>
		<g>
			<g>
				
					<ellipse transform="matrix(0.0895 -0.996 0.996 0.0895 197.9288 732.4392)" class="st8" cx="499.58" cy="257.96" rx="1.47" ry="1.72"/>
			</g>
		</g>
	</g>
</g>
</svg>
