<svg id="Layer_1" data-name="Layer 1" xmlns="http://www.w3.org/2000/svg" xmlns:xlink="http://www.w3.org/1999/xlink" viewBox="0 0 390.11 348.46"><defs><style>.cls-1{fill-rule:evenodd;fill:url(#linear-gradient);}.cls-2{fill:#213a8f;}</style><linearGradient id="linear-gradient" x1="221.31" y1="320.89" x2="611.42" y2="320.89" gradientUnits="userSpaceOnUse"><stop offset="0" stop-color="#fff"/><stop offset="0" stop-color="#fdf0e0"/><stop offset="0" stop-color="#fbdcb7"/><stop offset="0" stop-color="#f9ca91"/><stop offset="0" stop-color="#f8bb71"/><stop offset="0" stop-color="#f6ae55"/><stop offset="0" stop-color="#f5a33f"/><stop offset="0" stop-color="#f49b2f"/><stop offset="0" stop-color="#f39523"/><stop offset="0" stop-color="#f3921c"/><stop offset="0" stop-color="#f3911a"/><stop offset="0.04" stop-color="#f19415"/><stop offset="0.19" stop-color="#eb9d0a"/><stop offset="0.4" stop-color="#e8a303"/><stop offset="0.99" stop-color="#e7a401"/></linearGradient></defs><path class="cls-1" d="M416.37,146.66c-107.73,0-195.06,78-195.06,174.23a157.71,157.71,0,0,0,14.58,66.18c17-9.24,35-16.55,54.35-14.42,29.36,3.23,51.38,27.37,62.6,56,7.49,19.07,9.84,39.33,9.43,59.7a217,217,0,0,0,54.1,6.79c107.72,0,195-78,195-174.23S524.09,146.66,416.37,146.66Z" transform="translate(-221.31 -146.66)"/><path class="cls-2" d="M509.56,204.66c-8,7.39-9.4,18.72-4.49,28.38A8.29,8.29,0,0,1,503,242.9l-28.75,26.51a10.39,10.39,0,0,1-12.18,1.19,58.94,58.94,0,0,0-35.27-8,9.89,9.89,0,0,1-10-5.3l-1.5-3.16a8.71,8.71,0,0,1,2.12-10.26h0c7.15-6.61,9.29-16.57,5.57-26a5.2,5.2,0,0,0-6-3,3.84,3.84,0,0,0-2.73,5.24,15.53,15.53,0,0,1-3.74,17.48c-7.06,6.51-19.12,6-26.89-1.09s-8.35-18.19-1.29-24.7c4.81-4.43,12.09-5.77,19-3.5a4.34,4.34,0,0,0,5.69-2.53,4.63,4.63,0,0,0-3.3-5.48c-10.3-3.38-21.14-1.38-28.3,5.22-10.5,9.68-9.64,26.18,1.92,36.76a32.36,32.36,0,0,0,20.44,8.4,9.6,9.6,0,0,1,8.47,5.14l1.73,3.65c1.83,3.86.29,8.26-3.46,10.67a44.39,44.39,0,0,0-6.15,4.74,41.49,41.49,0,0,0-11.06,16.63c-1.47,4.12-6,6.63-10.67,6l-54.58-7.57a9.55,9.55,0,0,1-8-6.91,36.69,36.69,0,0,0-10.91-17.64c-15-13.7-38.23-14.64-51.84-2.09s-12.49,33.9,2.49,47.6,38.24,14.64,51.84,2.09a29.34,29.34,0,0,0,6.75-9.17,9.88,9.88,0,0,1,10.37-5.27l54.73,7.59a9.35,9.35,0,0,1,8.14,7.36A51.4,51.4,0,0,0,402,342.39a59.82,59.82,0,0,0,22.66,12.91,9,9,0,0,1,6.66,8.62l-.53,28.23a9.34,9.34,0,0,1-7.92,8.87,39.4,39.4,0,0,0-20.21,9.71c-16,14.73-14.66,39.81,2.92,55.9s44.9,17.19,60.87,2.46,14.67-39.81-2.92-55.9a49,49,0,0,0-17.1-10.14,9,9,0,0,1-6.37-8.53l.54-28.68c.08-4.33,3.66-7.82,8.32-8.43a50.19,50.19,0,0,0,17.54-5.6,3.87,3.87,0,0,0,1.19-5.81,5.14,5.14,0,0,0-6.46-1.64c-16.23,8.85-38,5.89-52.94-7.74-17.44-15.95-18.74-40.81-2.89-55.42s42.91-13.51,60.35,2.44c15,13.76,18.1,33.82,8.64,48.58a4.3,4.3,0,0,0,1.81,5.94,4.68,4.68,0,0,0,6.32-1.12,40.82,40.82,0,0,0,4.1-8.4c1.44-4.09,6-6.53,10.64-5.89l20.57,2.85a9.54,9.54,0,0,1,7.42,5,20.11,20.11,0,0,0,4.64,6.24c7.94,7.26,20.26,7.76,27.48,1.11s6.61-18-1.32-25.23-20.27-7.76-27.48-1.11a17.63,17.63,0,0,0-1.72,1.86,10,10,0,0,1-9.27,3.53l-21.09-2.93a9.37,9.37,0,0,1-8.14-7.43A49.67,49.67,0,0,0,480,287a8.47,8.47,0,0,1,1.18-11.29l28.75-26.51a10.2,10.2,0,0,1,10.72-1.92c10.54,4.48,22.88,3.15,30.89-4.24,10.5-9.69,9.64-26.18-1.92-36.76s-29.53-11.31-40-1.62ZM298.8,306.7c-10.16,9.36-27.52,8.66-38.7-1.57s-12-26.17-1.86-35.54,27.52-8.66,38.7,1.57S309,297.33,298.8,306.7ZM459.56,462.79c-12.53,11.55-33.94,10.68-47.73-1.93S397,428.58,409.54,417s33.93-10.69,47.73,1.93S472.09,451.24,459.56,462.79ZM535.41,318c3.76-3.47,10.19-3.21,14.33.58s4.45,9.69.69,13.16-10.19,3.21-14.34-.58S531.64,321.43,535.41,318Zm9.22-81.22c-7.06,6.51-19.12,6-26.89-1.09s-8.35-18.18-1.29-24.69,19.12-6,26.89,1.09S551.69,230.23,544.63,236.74Z" transform="translate(-221.31 -146.66)"/><path class="cls-2" d="M290.39,289.72a6.2,6.2,0,0,0,.34-3.79c-.3-1.52-1-2.5-3.45-5.25a14.47,14.47,0,0,1-2.69-3.49l-.1-.22a4.54,4.54,0,0,1-.6-2.16,1.3,1.3,0,0,0-1.09-1.35,1.34,1.34,0,0,0-1.63.68l-6.91,18.95a9.25,9.25,0,0,0-3.7-2.11c-3.7-1.14-7.4-.16-8.26,2.19s1.46,5.18,5.15,6.31,7.4.16,8.26-2.19l4.52-12.39a8.14,8.14,0,0,1,3.83,7.63c-.24.14-.79,3.69-.19,3.43S289.59,291.48,290.39,289.72Z" transform="translate(-221.31 -146.66)"/><path class="cls-2" d="M457.14,450h0l-8.39-5.86a6.32,6.32,0,0,0-1.36-2.83c-.82-1.22-7.24-11.32-9.21-14.42a2,2,0,0,0-2.24-.87,7.85,7.85,0,0,1-4.72.05,1.89,1.89,0,0,0-.88-.08,11.15,11.15,0,0,1-.93-2.37c-.49-1.57-1-3.2-2.42-4.22L423.75,417a2.61,2.61,0,0,0-3.19,0c-12,9.57-11.72,9.44-11.73,9.46a4.12,4.12,0,0,0-1.15,4.4c.85,3.2,4.26,6.43,6.22,8.07,2.91,2.46,6.14,4.37,8.23,4.89a2.9,2.9,0,0,0,2.21-.13,6.74,6.74,0,0,1,2,1,7,7,0,0,1,1.28,1.2c-.19,1.09.55,2.5,2.31,4.37a31.37,31.37,0,0,0,4.15,3.68c5.44,3.95,14.09,7.41,19.34,6.51,1.89-.33,5.6-1.94,5.7-4.09h0l.1-2.12A5.1,5.1,0,0,0,457.14,450ZM436.5,427.78a.15.15,0,0,1,.17,0l.87,1.38-1.17.47a.91.91,0,0,0-.47,1.21.94.94,0,0,0,1.19.56l1.5-.6c.7,1.09.86,1.34,1.27,2l-1.16.46a.92.92,0,0,0-.47,1.22.93.93,0,0,0,1.19.55l1.49-.6,1.24,1.95v0l0,0-1.14.46a.91.91,0,0,0-.47,1.21.94.94,0,0,0,1.19.56l1.46-.59c.43.66.9,1.41,1.28,2l-1.28.51a1,1,0,0,0,.73,1.77l1.6-.64a15.29,15.29,0,0,1,1.35,2.2,3.21,3.21,0,0,1-1,.23,23.5,23.5,0,0,1-3.41.05,1,1,0,0,1-.76-.47c-5.45-8.61-8.74-14-9.85-15.66A10,10,0,0,0,436.5,427.78Zm-13.17,14.3c-1.52.55-9.32-4.25-12.7-9.19-2.55-3.74-.64-4.8-.58-5,.25-.22.48-.42.66-.55.34-.24.51-.33,1.45.3a79.07,79.07,0,0,1,6.13,5.31c1.33,1.21,2.84,2.58,4.66,4.2A3.77,3.77,0,0,1,423.33,442.08Zm-3.89-10.49a76,76,0,0,0-6.34-5.47,4.76,4.76,0,0,0-.51-.32l9.11-7.26a.9.9,0,0,1,1.07,0l3.22,2.34a6,6,0,0,1,1.68,3.2,10,10,0,0,0,1.7,3.62,44.77,44.77,0,0,1,2.81,4.26l-.43.07c-3.05.49-6.49,1-8.25,3.24Zm7.87,11.58a8.28,8.28,0,0,0-1.86-1,5.93,5.93,0,0,0-.63-5.51c1.31-1.79,4.48-2.29,7.29-2.74l1.16-.19c1.52,2.44,3.75,6,6.94,11.05a3.11,3.11,0,0,0,.55.65,5.44,5.44,0,0,1-.84,2.42,5.74,5.74,0,0,1-.36.5c-3.42-2.06-4.43-3-6.87-3.54a8.2,8.2,0,0,0-3.84-.2A9,9,0,0,0,427.31,443.17Zm30,13c0,.14-.27.64-1.39,1.29a9.55,9.55,0,0,1-2.66,1.08c-4.68,1-13.09-2.43-18.2-6.13a30.09,30.09,0,0,1-3.67-3.23c-1.71-1.78-1.95-2.58-2-2.8a7,7,0,0,1,3,.23c2.19.52,3,1.34,6.87,3.63a1.06,1.06,0,0,0,.2.12c13.75,8.09,16.95,5.63,17.82,5.74l0,.05Zm.1-2.11v.17a5.54,5.54,0,0,0-1.54.17c-2,.35-6.22-.3-14.65-5.13l.25-.36a7.5,7.5,0,0,0,1.06-2.8,21.32,21.32,0,0,0,4.13-.13,3.73,3.73,0,0,0,1.15-.35l8.37,5.85A3.07,3.07,0,0,1,457.4,454.07Z" transform="translate(-221.31 -146.66)"/><path class="cls-2" d="M460.22,334.47a55.55,55.55,0,0,0,6.14-9.86,40.1,40.1,0,0,0,3.38-9.63c1.73-10.92-4.42-13.56-11.85-16.64a60,60,0,0,1-7.19-3.49l-.68-.5a53.33,53.33,0,0,1-5.28-5.67c-5-5.92-9.06-10.91-20.34-6.9a43.45,43.45,0,0,0-9.48,5.14,59.39,59.39,0,0,0-9.12,7.68c-2.83,3-4.44,5.47-5.06,7.59a5.56,5.56,0,0,0,.88,5.11,8.83,8.83,0,0,0,4.71,2.77c3.49,1,8.33,1.15,13.47.87,3.68-.28,8.4,1.7,12.34,4.59s7.07,6.69,7.59,10c.82,4.68,2.08,9,3.88,11.88a9,9,0,0,0,4,3.61,6.88,6.88,0,0,0,5.68-.39C455.32,339.71,457.61,337.72,460.22,334.47Zm-8.53,3.66a3.63,3.63,0,0,1-2.94.32,6,6,0,0,1-2.52-2.35c-1.63-2.58-2.78-6.5-3.49-10.79s-4.11-8.68-8.65-12S424,307.77,419.46,308c-4.78.25-9.25.15-12.24-.76a5.59,5.59,0,0,1-3-1.74,2.89,2.89,0,0,1-.31-2.7c.46-1.55,1.82-3.63,4.38-6.31a55.23,55.23,0,0,1,8.69-7.3,40.37,40.37,0,0,1,8.8-4.75c8.95-3.25,12.44.91,16.54,5.9a49.22,49.22,0,0,0,5.64,6l.14.1.75.55.13.1a53.64,53.64,0,0,0,7.71,3.78c6.16,2.63,11.39,4.79,9.9,13.52a32.88,32.88,0,0,1-3.1,8.93,56.34,56.34,0,0,1-5.85,9.39C455.31,335.63,453.41,337.31,451.69,338.13Z" transform="translate(-221.31 -146.66)"/><path class="cls-2" d="M436.26,291.89a5.68,5.68,0,0,0-3.27-1,4.32,4.32,0,0,0-1.71-2.55l-.1-.07a5.44,5.44,0,0,0-7.07.74A4.24,4.24,0,0,0,423,292a5.32,5.32,0,0,0-2.95,1.55l-.08.09a4.08,4.08,0,0,0-1.07,3.31,4.45,4.45,0,0,0,1.85,3,5.26,5.26,0,0,0,3.36,1,4.06,4.06,0,0,0,1.81,2.61,5.44,5.44,0,0,0,7.07-.74,4.41,4.41,0,0,0,1.12-2.92A4.8,4.8,0,0,0,437,298.2a4.08,4.08,0,0,0,1.08-3.31A4.46,4.46,0,0,0,436.26,291.89Zm-3.84,8.38a2,2,0,0,1-1.33-.38l-.95-.7a1.73,1.73,0,0,0-2.29.2l-.68.79a1.8,1.8,0,0,1-1.2.61,1.9,1.9,0,0,1-1.33-.39,1.62,1.62,0,0,1-.7-1.11,1.44,1.44,0,0,1,.38-1.2l.74-.85a1.42,1.42,0,0,0-.29-2.1l-.95-.69a1.62,1.62,0,0,1-.7-1.11,1.43,1.43,0,0,1,.33-1.15,1.8,1.8,0,0,1,1.2-.61h.12a2.24,2.24,0,0,1,1.21.4l.95.69a1.72,1.72,0,0,0,2.29-.2l.74-.85a1.75,1.75,0,0,1,1.19-.61,1.93,1.93,0,0,1,1.34.39,1.65,1.65,0,0,1,.7,1.11v.11a1.69,1.69,0,0,1-.4,1.09l-.73.85a1.42,1.42,0,0,0,.28,2.1l.95.69a1.62,1.62,0,0,1,.7,1.11,1.45,1.45,0,0,1-.38,1.21A1.76,1.76,0,0,1,432.42,300.27Z" transform="translate(-221.31 -146.66)"/><ellipse class="cls-2" cx="456.68" cy="309.56" rx="2.74" ry="3.01" transform="translate(-138.48 568.63) rotate(-81.47)"/><ellipse class="cls-2" cx="449.2" cy="318.15" rx="2.74" ry="3.01" transform="translate(-153.34 568.55) rotate(-81.47)"/><ellipse class="cls-2" cx="448.13" cy="310.32" rx="2.74" ry="3.01" transform="matrix(0.15, -0.99, 0.99, 0.15, -146.51, 560.82)"/><ellipse class="cls-2" cx="457.75" cy="317.39" rx="2.74" ry="3.01" transform="translate(-145.31 576.36) rotate(-81.47)"/></svg>