<svg id="Layer_2" data-name="Layer 2" xmlns="http://www.w3.org/2000/svg" xmlns:xlink="http://www.w3.org/1999/xlink" viewBox="0 0 364.17 244.53"><defs><style>.cls-1{fill:url(#linear-gradient);}.cls-2{fill:#f3911a;}.cls-3{fill:#213a8f;}.cls-4{fill-rule:evenodd;fill:url(#linear-gradient-8);}</style><linearGradient id="linear-gradient" x1="221.05" y1="324.39" x2="445.37" y2="324.39" gradientUnits="userSpaceOnUse"><stop offset="0.06" stop-color="#fff"/><stop offset="0.08" stop-color="#fdedda"/><stop offset="0.1" stop-color="#fbd8ad"/><stop offset="0.13" stop-color="#f9c586"/><stop offset="0.16" stop-color="#f7b564"/><stop offset="0.19" stop-color="#f5a849"/><stop offset="0.22" stop-color="#f49e34"/><stop offset="0.25" stop-color="#f49625"/><stop offset="0.3" stop-color="#f3921d"/><stop offset="0.36" stop-color="#f3911a"/><stop offset="0.99" stop-color="#e7a401"/></linearGradient><linearGradient id="linear-gradient-8" x1="364.57" y1="259.84" x2="587.32" y2="259.84" gradientUnits="userSpaceOnUse"><stop offset="0" stop-color="#fff"/><stop offset="0" stop-color="#fdf0e0"/><stop offset="0" stop-color="#fbdcb7"/><stop offset="0" stop-color="#f9ca91"/><stop offset="0" stop-color="#f8bb71"/><stop offset="0" stop-color="#f6ae55"/><stop offset="0" stop-color="#f5a33f"/><stop offset="0" stop-color="#f49b2f"/><stop offset="0" stop-color="#f39523"/><stop offset="0" stop-color="#f3921c"/><stop offset="0" stop-color="#f3911a"/><stop offset="0.04" stop-color="#f19415"/><stop offset="0.19" stop-color="#eb9d0a"/><stop offset="0.4" stop-color="#e8a303"/><stop offset="0.99" stop-color="#e7a401"/></linearGradient></defs><path class="cls-1" d="M254.53,338.17a29.89,29.89,0,0,1-11.67,2c-10.08,0-19.71-5.73-19.71-17.88,0-9.09,7.2-18.18,21.2-18.18,5.65,0,8.8,1.19,10.07,1.75l-.88,2.12a22.57,22.57,0,0,0-9-1.75c-12.12,0-18.54,6.87-18.54,16.27,0,8.58,6.14,15.5,17.87,15.5a24.48,24.48,0,0,0,9.85-1.86Z" transform="translate(-223.15 -166.42)"/><path class="cls-1" d="M261.35,302.57h2.71v17.2h.11a10.17,10.17,0,0,1,4.09-4,12.24,12.24,0,0,1,6-1.6c2.55,0,10.35,1,10.35,11.26v14.16h-2.71V325.51c0-4.81-2.22-9.15-8.36-9.15a10,10,0,0,0-9,5.84,6.24,6.24,0,0,0-.44,2.64v14.72h-2.71Z" transform="translate(-223.15 -166.42)"/><path class="cls-1" d="M310.16,339.56l-.44-3.82h-.11a12,12,0,0,1-9.63,4.44c-6,0-8.47-3.82-8.47-6.82,0-5.63,5.59-9.3,18-9.14v-.57c0-1.86-.45-7.44-7.53-7.39a14.07,14.07,0,0,0-7.64,2.07l-.88-1.81a16.87,16.87,0,0,1,8.74-2.38c9,0,10,6.51,10,10.44v9a36.6,36.6,0,0,0,.44,6Zm-.66-13.23c-7-.2-15.11.83-15.11,6.57,0,3.51,2.71,5.21,5.81,5.21,5.15,0,7.91-2.84,9-5.06a3.85,3.85,0,0,0,.33-1.45Z" transform="translate(-223.15 -166.42)"/><path class="cls-1" d="M321.51,302.57h2.71v37h-2.71Z" transform="translate(-223.15 -166.42)"/><path class="cls-1" d="M334.13,327.16c0,7.23,4.92,10.85,11.23,10.85a19.62,19.62,0,0,0,8.53-1.55l.72,2a22.7,22.7,0,0,1-9.52,1.7c-8.25,0-13.62-5.22-13.62-12.4,0-8.42,5.76-13.64,13.28-13.64,9.86,0,11.57,8.16,11.57,11.47a5.77,5.77,0,0,1-.11,1.55Zm19.37-2c.05-2.59-1.11-8.94-9.08-8.94-6.75,0-9.57,5.16-10.13,8.94Z" transform="translate(-223.15 -166.42)"/><path class="cls-1" d="M362.58,336.2a13.55,13.55,0,0,0,6.64,1.86c4.65,0,6.7-2.27,6.7-4.8,0-2.9-2.11-4.29-6.26-5.53-4.81-1.45-7.19-3.77-7.19-6.72,0-3.51,3-6.87,8.74-6.87a12.24,12.24,0,0,1,6.42,1.65l-1.05,2.07a10.64,10.64,0,0,0-5.87-1.6c-3.65,0-5.59,2.07-5.59,4.44,0,2.79,2.27,3.88,6.2,5.12,4.87,1.55,7.25,3.51,7.25,7.23,0,4-3.54,7.13-9.57,7.13a15.68,15.68,0,0,1-7.42-1.81Z" transform="translate(-223.15 -166.42)"/><path class="cls-1" d="M386.27,302.57H389v17.2h.11a10.14,10.14,0,0,1,4.1-4,12.17,12.17,0,0,1,6-1.6c2.55,0,10.35,1,10.35,11.26v14.16H406.8V325.51c0-4.81-2.21-9.15-8.36-9.15a10,10,0,0,0-9,5.84,6.24,6.24,0,0,0-.44,2.64v14.72h-2.71Z" transform="translate(-223.15 -166.42)"/><path class="cls-2" d="M254.53,338.17a29.89,29.89,0,0,1-11.67,2c-10.08,0-19.71-5.73-19.71-17.88,0-9.09,7.2-18.18,21.2-18.18,5.65,0,8.8,1.19,10.07,1.75l-.88,2.12a22.57,22.57,0,0,0-9-1.75c-12.12,0-18.54,6.87-18.54,16.27,0,8.58,6.14,15.5,17.87,15.5a24.48,24.48,0,0,0,9.85-1.86Z" transform="translate(-223.15 -166.42)"/><path class="cls-2" d="M261.35,302.57h2.71v17.2h.11a10.17,10.17,0,0,1,4.09-4,12.24,12.24,0,0,1,6-1.6c2.55,0,10.35,1,10.35,11.26v14.16h-2.71V325.51c0-4.81-2.22-9.15-8.36-9.15a10,10,0,0,0-9,5.84,6.24,6.24,0,0,0-.44,2.64v14.72h-2.71Z" transform="translate(-223.15 -166.42)"/><path class="cls-2" d="M310.16,339.56l-.44-3.82h-.11a12,12,0,0,1-9.63,4.44c-6,0-8.47-3.82-8.47-6.82,0-5.63,5.59-9.3,18-9.14v-.57c0-1.86-.45-7.44-7.53-7.39a14.07,14.07,0,0,0-7.64,2.07l-.88-1.81a16.87,16.87,0,0,1,8.74-2.38c9,0,10,6.51,10,10.44v9a36.6,36.6,0,0,0,.44,6Zm-.66-13.23c-7-.2-15.11.83-15.11,6.57,0,3.51,2.71,5.21,5.81,5.21,5.15,0,7.91-2.84,9-5.06a3.85,3.85,0,0,0,.33-1.45Z" transform="translate(-223.15 -166.42)"/><path class="cls-2" d="M321.51,302.57h2.71v37h-2.71Z" transform="translate(-223.15 -166.42)"/><path class="cls-2" d="M334.13,327.16c0,7.23,4.92,10.85,11.23,10.85a19.62,19.62,0,0,0,8.53-1.55l.72,2a22.7,22.7,0,0,1-9.52,1.7c-8.25,0-13.62-5.22-13.62-12.4,0-8.42,5.76-13.64,13.28-13.64,9.86,0,11.57,8.16,11.57,11.47a5.77,5.77,0,0,1-.11,1.55Zm19.37-2c.05-2.59-1.11-8.94-9.08-8.94-6.75,0-9.57,5.16-10.13,8.94Z" transform="translate(-223.15 -166.42)"/><path class="cls-2" d="M362.58,336.2a13.55,13.55,0,0,0,6.64,1.86c4.65,0,6.7-2.27,6.7-4.8,0-2.9-2.11-4.29-6.26-5.53-4.81-1.45-7.19-3.77-7.19-6.72,0-3.51,3-6.87,8.74-6.87a12.24,12.24,0,0,1,6.42,1.65l-1.05,2.07a10.64,10.64,0,0,0-5.87-1.6c-3.65,0-5.59,2.07-5.59,4.44,0,2.79,2.27,3.88,6.2,5.12,4.87,1.55,7.25,3.51,7.25,7.23,0,4-3.54,7.13-9.57,7.13a15.68,15.68,0,0,1-7.42-1.81Z" transform="translate(-223.15 -166.42)"/><path class="cls-2" d="M386.27,302.57H389v17.2h.11a10.14,10.14,0,0,1,4.1-4,12.17,12.17,0,0,1,6-1.6c2.55,0,10.35,1,10.35,11.26v14.16H406.8V325.51c0-4.81-2.21-9.15-8.36-9.15a10,10,0,0,0-9,5.84,6.24,6.24,0,0,0-.44,2.64v14.72h-2.71Z" transform="translate(-223.15 -166.42)"/><path class="cls-3" d="M323.12,369.79c-.46-7.59-1.05-17.47-1.05-22.94h-.13c-1.76,5.47-3.78,11.4-6.58,19.14l-10.17,27.95h-2.42l-9.52-27.57c-2.73-8-4.75-14.05-6.19-19.52h-.13c-.2,5.93-.52,15.27-1.11,23.7l-1.56,23.39h-3.13l3.52-51.19h3.65l10.56,30.53c2.22,6.38,3.91,11.7,5.22,16.33h.13c1.17-4.33,2.93-9.49,5.41-16.25l11.08-30.61h3.79l3.13,51.19h-3.13Z" transform="translate(-223.15 -166.42)"/><path class="cls-3" d="M338.43,375.71c0,10.63,5.8,16,13.24,16,5.41,0,8-1.21,10-2.28l.85,3c-1.11.61-4.63,2.51-11.22,2.51-9.71,0-16-7.67-16-18.23,0-12.37,6.78-20,15.65-20,11.61,0,13.63,12,13.63,16.85a10.53,10.53,0,0,1-.13,2.28Zm22.82-3c.07-3.8-1.3-13.14-10.69-13.14-8,0-11.28,7.6-11.93,13.14Z" transform="translate(-223.15 -166.42)"/><path class="cls-3" d="M371.88,357.49l9.32,24.37a78.29,78.29,0,0,1,2.54,7.68h.13c.72-2.28,1.57-5,2.61-8l8.74-24.07h3.45L387.59,387c-4.3,11.55-7.11,17.24-11.28,20.74a15.62,15.62,0,0,1-5.74,3.26l-.85-3.11a15,15,0,0,0,5.74-3.57,27,27,0,0,0,6-9.8,4.69,4.69,0,0,0,.39-1.44,5.23,5.23,0,0,0-.46-1.67l-13-33.87Z" transform="translate(-223.15 -166.42)"/><path class="cls-3" d="M432.31,339.56v45.57c0,3,.07,5.85.26,8.81h-2.93l-.19-7.6h-.14a13.24,13.24,0,0,1-12.64,8.51c-8.81,0-15.07-8.2-15.07-18.3-.06-11.85,7-20,15.78-20a12.5,12.5,0,0,1,11.61,7h.13v-24Zm-3.19,32.58a16.75,16.75,0,0,0-.39-3.57c-1.37-4.93-5.41-9-11.28-9-7.44,0-12.65,6.61-12.65,16.48,0,8.2,4.11,15.72,12.58,15.72,5.35,0,10-4.25,11.35-10a12.12,12.12,0,0,0,.39-3.19Z" transform="translate(-223.15 -166.42)"/><path class="cls-3" d="M473.78,375.26c0,13.67-9.13,19.59-16.82,19.59-9.33,0-16.11-8-16.11-18.76,0-12.15,7.82-19.51,16.56-19.51C467.45,356.58,473.78,364.85,473.78,375.26Zm-29.73.61c0,10.17,6.32,15.94,13.1,15.94s13.43-5.84,13.43-16.32c0-6.92-4-15.88-13.17-15.88C448.54,359.61,444.05,367.36,444.05,375.87Z" transform="translate(-223.15 -166.42)"/><path class="cls-3" d="M512.31,375.26c0,13.67-9.13,19.59-16.83,19.59-9.32,0-16.1-8-16.1-18.76,0-12.15,7.82-19.51,16.56-19.51C506,356.58,512.31,364.85,512.31,375.26Zm-29.74.61c0,10.17,6.33,15.94,13.11,15.94s13.43-5.84,13.43-16.32c0-6.92-4-15.88-13.17-15.88C487.07,359.61,482.57,367.36,482.57,375.87Z" transform="translate(-223.15 -166.42)"/><path class="cls-3" d="M520.84,366.3c0-3-.06-5.85-.26-8.81h3l.26,7.29H524a13.18,13.18,0,0,1,12.07-8.2c2.86,0,12.19,1.51,12.19,16.63v20.73H545V373.21c0-7.14-2.67-13.45-9.84-13.45-5,0-9.2,4-10.63,8.66a12,12,0,0,0-.52,3.27v22.25h-3.2Z" transform="translate(-223.15 -166.42)"/><path class="cls-4" d="M476,166.42c-61.52,0-111.38,41.82-111.38,93.42a80.26,80.26,0,0,0,8.32,35.48c9.72-4.95,20-8.87,31-7.73,16.76,1.74,29.33,14.68,35.74,30,4.28,10.22,5.62,21.09,5.39,32A131.51,131.51,0,0,0,476,353.26c61.51,0,111.37-41.83,111.37-93.42S537.46,166.42,476,166.42Z" transform="translate(-223.15 -166.42)"/><path class="cls-3" d="M529.16,197.52a12,12,0,0,0-2.57,15.22,4.23,4.23,0,0,1-1.17,5.28L509,232.24a6.23,6.23,0,0,1-6.95.63,35.53,35.53,0,0,0-20.15-4.26,5.72,5.72,0,0,1-5.69-2.85l-.85-1.69a4.48,4.48,0,0,1,1.2-5.5h0a11.86,11.86,0,0,0,3.18-13.95,3,3,0,0,0-3.41-1.61,2,2,0,0,0-1.56,2.81,8,8,0,0,1-2.14,9.37c-4,3.49-10.92,3.23-15.35-.58s-4.77-9.76-.74-13.25a11.5,11.5,0,0,1,10.86-1.87,2.54,2.54,0,0,0,3.25-1.36,2.47,2.47,0,0,0-1.88-2.94c-5.88-1.81-12.07-.74-16.16,2.8-6,5.19-5.51,14,1.1,19.71a19,19,0,0,0,11.67,4.5,5.53,5.53,0,0,1,4.83,2.76l1,2a4.34,4.34,0,0,1-2,5.72,24.86,24.86,0,0,0-3.51,2.54,22.26,22.26,0,0,0-6.31,8.91,5.66,5.66,0,0,1-6.1,3.21l-31.16-4.06a5.37,5.37,0,0,1-4.6-3.7,19.51,19.51,0,0,0-6.23-9.46c-8.55-7.35-21.83-7.85-29.6-1.12s-7.13,18.17,1.43,25.52,21.83,7.85,29.6,1.12a15.82,15.82,0,0,0,3.85-4.91,5.73,5.73,0,0,1,5.92-2.83l31.25,4.07a5.23,5.23,0,0,1,4.65,3.95,27.2,27.2,0,0,0,9.32,15.49,34.83,34.83,0,0,0,12.94,6.92,4.89,4.89,0,0,1,3.8,4.62l-.3,15.14a5.13,5.13,0,0,1-4.52,4.75A23.09,23.09,0,0,0,468.11,308c-9.12,7.9-8.37,21.34,1.67,30s25.64,9.22,34.76,1.32,8.37-21.34-1.67-30a28.4,28.4,0,0,0-9.77-5.44,4.86,4.86,0,0,1-3.63-4.57l.31-15.38c0-2.32,2.08-4.19,4.75-4.52a30.1,30.1,0,0,0,10-3,2,2,0,0,0,.68-3.12,3.07,3.07,0,0,0-3.69-.88c-9.26,4.75-21.72,3.16-30.22-4.15-10-8.55-10.7-21.88-1.66-29.71s24.51-7.25,34.47,1.31c8.58,7.37,10.33,18.13,4.93,26a2.25,2.25,0,0,0,1,3.19,2.79,2.79,0,0,0,3.61-.6A21.18,21.18,0,0,0,516,264c.83-2.2,3.43-3.51,6.08-3.16l11.74,1.53a5.47,5.47,0,0,1,4.24,2.7,10.78,10.78,0,0,0,2.65,3.35c4.53,3.89,11.57,4.16,15.69.59s3.78-9.63-.76-13.52-11.57-4.16-15.68-.6a8.31,8.31,0,0,0-1,1,5.94,5.94,0,0,1-5.3,1.9l-12-1.57a5.23,5.23,0,0,1-4.65-4,25.86,25.86,0,0,0-4.75-10.55,4.35,4.35,0,0,1,.67-6.06l16.42-14.21a6.11,6.11,0,0,1,6.12-1c6,2.4,13.06,1.69,17.64-2.27,6-5.2,5.5-14-1.1-19.71s-16.86-6.07-22.86-.87ZM408.81,252.23c-5.8,5-15.71,4.64-22.09-.84s-6.86-14-1.06-19.06,15.71-4.64,22.09.84S414.61,247.21,408.81,252.23Zm91.8,83.69c-7.15,6.2-19.38,5.73-27.26-1s-8.46-17.31-1.3-23.5,19.37-5.73,27.25,1S507.76,329.73,500.61,335.92Zm43.31-77.65a6.48,6.48,0,0,1,8.18.31c2.37,2,2.54,5.2.4,7.06a6.49,6.49,0,0,1-8.19-.31C542,263.29,541.77,260.13,543.92,258.27Zm5.27-43.55c-4,3.49-10.92,3.23-15.36-.58s-4.77-9.75-.74-13.24,10.92-3.23,15.36.58S553.22,211.23,549.19,214.72Z" transform="translate(-223.15 -166.42)"/><path class="cls-3" d="M404,243.13a3.2,3.2,0,0,0,.2-2c-.18-.81-.55-1.34-2-2.81a7.92,7.92,0,0,1-1.54-1.87l-.06-.12a2.39,2.39,0,0,1-.34-1.16c.06-.31-.22-.62-.62-.72a.78.78,0,0,0-.93.36l-3.95,10.16a5.51,5.51,0,0,0-2.11-1.13c-2.11-.61-4.22-.08-4.71,1.17s.83,2.78,2.94,3.39,4.22.08,4.71-1.17l2.58-6.65a4.31,4.31,0,0,1,2.19,4.09c-.14.08-.45,2-.11,1.84S403.56,244.07,404,243.13Z" transform="translate(-223.15 -166.42)"/><path class="cls-3" d="M499.23,329h0l-4.79-3.14a3.34,3.34,0,0,0-.78-1.52c-.47-.65-4.14-6.07-5.26-7.73a1.15,1.15,0,0,0-1.28-.46,4.74,4.74,0,0,1-2.69,0,1.26,1.26,0,0,0-.51,0,6.47,6.47,0,0,1-.53-1.27,4,4,0,0,0-1.38-2.26l-1.84-1.26a1.58,1.58,0,0,0-1.82,0c-6.84,5.14-6.69,5.06-6.7,5.07a2.13,2.13,0,0,0-.65,2.36c.48,1.72,2.43,3.45,3.54,4.33a14,14,0,0,0,4.71,2.62,1.75,1.75,0,0,0,1.26-.07,4.06,4.06,0,0,1,1.14.53,4.14,4.14,0,0,1,.73.65c-.11.58.31,1.34,1.31,2.34a18.74,18.74,0,0,0,2.37,2c3.11,2.11,8.05,4,11.05,3.48,1.08-.17,3.19-1,3.25-2.19h0l.06-1.14A2.68,2.68,0,0,0,499.23,329Zm-11.79-11.89s.08,0,.1,0l.5.74-.67.25a.49.49,0,0,0-.27.66.54.54,0,0,0,.68.29l.85-.32.73,1.07-.66.25a.49.49,0,0,0-.27.65.54.54,0,0,0,.68.3l.85-.32.71,1v0h0l-.66.25a.47.47,0,0,0-.26.65.54.54,0,0,0,.68.29l.83-.31.73,1.07-.73.28a.48.48,0,0,0-.27.65.54.54,0,0,0,.68.29l.92-.34a8.46,8.46,0,0,1,.77,1.18,2,2,0,0,1-.58.13,16.63,16.63,0,0,1-1.95,0,.52.52,0,0,1-.43-.25c-3.11-4.62-5-7.48-5.63-8.4A6,6,0,0,0,487.44,317.15Zm-7.52,7.67c-.87.3-5.32-2.28-7.25-4.93-1.46-2-.36-2.57-.33-2.66a3.51,3.51,0,0,1,.38-.29c.19-.13.29-.18.82.16a44.41,44.41,0,0,1,3.51,2.84l2.65,2.26A1.92,1.92,0,0,1,479.92,324.82Zm-2.22-5.63a43.61,43.61,0,0,0-3.62-2.93l-.29-.17,5.2-3.89a.54.54,0,0,1,.61,0l1.84,1.26a3.18,3.18,0,0,1,1,1.71,5.21,5.21,0,0,0,1,1.94,22.92,22.92,0,0,1,1.6,2.29l-.24,0c-1.74.27-3.71.56-4.71,1.74Zm4.5,6.21a5.16,5.16,0,0,0-1.07-.55,3,3,0,0,0-.35-3c.74-1,2.55-1.23,4.16-1.47l.66-.11c.87,1.31,2.14,3.22,4,5.93a1.52,1.52,0,0,0,.32.35,3,3,0,0,1-.48,1.29,1.94,1.94,0,0,1-.21.27c-1.95-1.1-2.53-1.59-3.93-1.9a5,5,0,0,0-2.19-.1A5.27,5.27,0,0,0,482.2,325.4Zm17.12,7c0,.07-.16.34-.79.69a5.8,5.8,0,0,1-1.52.58c-2.68.52-7.48-1.3-10.4-3.29a17.28,17.28,0,0,1-2.09-1.73c-1-.95-1.11-1.38-1.13-1.5a4.14,4.14,0,0,1,1.69.12c1.26.28,1.72.72,3.93,1.95a.24.24,0,0,0,.11.06c7.85,4.34,9.68,3,10.18,3.08,0,0,0,0,0,0Zm.05-1.13v.09a3.4,3.4,0,0,0-.88.09c-1.17.19-3.55-.16-8.36-2.75l.14-.19a4,4,0,0,0,.6-1.51,13.48,13.48,0,0,0,2.36-.06,2.63,2.63,0,0,0,.66-.19l4.78,3.13A1.61,1.61,0,0,1,499.37,331.25Z" transform="translate(-223.15 -166.42)"/><path class="cls-3" d="M501,267.12a29.1,29.1,0,0,0,3.51-5.29,20.29,20.29,0,0,0,1.93-5.16c1-5.86-2.52-7.27-6.77-8.92a37.23,37.23,0,0,1-4.1-1.87l-.39-.27a32,32,0,0,1-3-3c-2.83-3.18-5.17-5.85-11.61-3.7a25.59,25.59,0,0,0-5.41,2.75,33.79,33.79,0,0,0-5.21,4.12,11,11,0,0,0-2.89,4.07,2.84,2.84,0,0,0,.51,2.74,5.07,5.07,0,0,0,2.68,1.49,26.92,26.92,0,0,0,7.7.46c2.1-.14,4.8.92,7,2.47s4,3.58,4.34,5.38a18.28,18.28,0,0,0,2.21,6.37,5.1,5.1,0,0,0,2.27,1.94,4.22,4.22,0,0,0,3.24-.21A12,12,0,0,0,501,267.12Zm-4.86,2a2.18,2.18,0,0,1-1.68.17A3.26,3.26,0,0,1,493,268a15.72,15.72,0,0,1-2-5.79c-.33-2.25-2.35-4.66-4.95-6.44a14.57,14.57,0,0,0-8.35-2.84,23.89,23.89,0,0,1-7-.4,3.24,3.24,0,0,1-1.74-.94,1.46,1.46,0,0,1-.18-1.45,9.46,9.46,0,0,1,2.5-3.38,31,31,0,0,1,5-3.91,23.09,23.09,0,0,1,5-2.55c5.11-1.74,7.1.49,9.44,3.16A26.67,26.67,0,0,0,494,246.7l.07.05.43.29.08.06a30.56,30.56,0,0,0,4.4,2c3.51,1.42,6.5,2.57,5.65,7.25a16.77,16.77,0,0,1-1.77,4.79,29.58,29.58,0,0,1-3.34,5A10.28,10.28,0,0,1,496.12,269.08Z" transform="translate(-223.15 -166.42)"/><path class="cls-3" d="M487.3,244.29a3.46,3.46,0,0,0-1.86-.53,2.29,2.29,0,0,0-1-1.36l-.06,0a3.16,3.16,0,0,0-2.11-.5,3,3,0,0,0-1.92.9,2.14,2.14,0,0,0-.64,1.57,3,3,0,0,0-1.69.83l0,.05a2.13,2.13,0,0,0-.62,1.77,2.37,2.37,0,0,0,1.07,1.61,3.12,3.12,0,0,0,1.91.52,2.21,2.21,0,0,0,1,1.41,3.2,3.2,0,0,0,2.12.5,3.15,3.15,0,0,0,1.92-.9,2.29,2.29,0,0,0,.64-1.57,2.75,2.75,0,0,0,1.68-.88,2.13,2.13,0,0,0,.62-1.77A2.37,2.37,0,0,0,487.3,244.29Zm-2.19,4.49a1.11,1.11,0,0,1-.76-.2l-.54-.38a1,1,0,0,0-1.31.11l-.39.42a1,1,0,0,1-.68.33,1.14,1.14,0,0,1-.76-.21.84.84,0,0,1-.4-.59.75.75,0,0,1,.22-.65l.42-.45a.73.73,0,0,0-.17-1.13l-.54-.37a.9.9,0,0,1-.4-.59.79.79,0,0,1,.19-.62,1.07,1.07,0,0,1,.68-.33h.07a1.4,1.4,0,0,1,.7.21l.54.37a1,1,0,0,0,1.3-.1l.43-.46a1,1,0,0,1,.68-.33,1.16,1.16,0,0,1,.76.21.86.86,0,0,1,.4.6v0a.93.93,0,0,1-.23.59l-.42.46a.73.73,0,0,0,.16,1.12l.55.37a.89.89,0,0,1,.4.6.78.78,0,0,1-.22.65A1,1,0,0,1,485.11,248.78Z" transform="translate(-223.15 -166.42)"/><ellipse class="cls-3" cx="498.96" cy="253.76" rx="1.47" ry="1.72" transform="translate(-21.6 561.59) rotate(-84.86)"/><ellipse class="cls-3" cx="494.69" cy="258.37" rx="1.47" ry="1.72" transform="translate(-30.08 561.53) rotate(-84.86)"/><ellipse class="cls-3" cx="494.08" cy="254.17" rx="1.47" ry="1.72" transform="translate(-26.45 557.09) rotate(-84.86)"/><ellipse class="cls-3" cx="499.58" cy="257.96" rx="1.47" ry="1.72" transform="translate(-25.23 566.02) rotate(-84.86)"/></svg>