<svg id="Layer_2" data-name="Layer 2" xmlns="http://www.w3.org/2000/svg" xmlns:xlink="http://www.w3.org/1999/xlink" viewBox="0 0 780.62 524.18"><defs><style>.cls-1{fill:url(#linear-gradient);}.cls-2{fill:#f3911a;}.cls-3{fill:#213a8f;}.cls-4{fill-rule:evenodd;fill:url(#linear-gradient-8);}</style><linearGradient id="linear-gradient" x1="28.38" y1="378.1" x2="509.22" y2="378.1" gradientUnits="userSpaceOnUse"><stop offset="0.06" stop-color="#fff"/><stop offset="0.08" stop-color="#fdedda"/><stop offset="0.1" stop-color="#fbd8ad"/><stop offset="0.13" stop-color="#f9c586"/><stop offset="0.16" stop-color="#f7b564"/><stop offset="0.19" stop-color="#f5a849"/><stop offset="0.22" stop-color="#f49e34"/><stop offset="0.25" stop-color="#f49625"/><stop offset="0.3" stop-color="#f3921d"/><stop offset="0.36" stop-color="#f3911a"/><stop offset="0.99" stop-color="#e7a401"/></linearGradient><linearGradient id="linear-gradient-8" x1="336.02" y1="239.72" x2="813.51" y2="239.72" gradientUnits="userSpaceOnUse"><stop offset="0" stop-color="#fff"/><stop offset="0" stop-color="#fdf0e0"/><stop offset="0" stop-color="#fbdcb7"/><stop offset="0" stop-color="#f9ca91"/><stop offset="0" stop-color="#f8bb71"/><stop offset="0" stop-color="#f6ae55"/><stop offset="0" stop-color="#f5a33f"/><stop offset="0" stop-color="#f49b2f"/><stop offset="0" stop-color="#f39523"/><stop offset="0" stop-color="#f3921c"/><stop offset="0" stop-color="#f3911a"/><stop offset="0.04" stop-color="#f19415"/><stop offset="0.19" stop-color="#eb9d0a"/><stop offset="0.4" stop-color="#e8a303"/><stop offset="0.99" stop-color="#e7a401"/></linearGradient></defs><path class="cls-1" d="M100.16,407.62c-4.51,2.11-13.52,4.32-25,4.32-21.6,0-42.24-12.29-42.24-38.32,0-19.5,15.42-39,45.44-39,12.1,0,18.87,2.55,21.6,3.76L98,342.94c-4.75-2.22-11.87-3.77-19.34-3.77-26,0-39.75,14.73-39.75,34.89,0,18.39,13.17,33.23,38.32,33.23,7.83,0,15.67-1.44,21.12-4Z" transform="translate(-32.89 -39.47)"/><path class="cls-1" d="M114.75,331.31h5.82v36.88h.24a21.81,21.81,0,0,1,8.78-8.64,26.16,26.16,0,0,1,12.81-3.43c5.46,0,22.19,2.21,22.19,24.14v30.35h-5.82V380.48c0-10.3-4.74-19.6-17.91-19.6a21.48,21.48,0,0,0-19.34,12.52,13.23,13.23,0,0,0-1,5.64v31.57h-5.82Z" transform="translate(-32.89 -39.47)"/><path class="cls-1" d="M219.4,410.61l-1-8.19h-.23c-3,4.09-10.21,9.52-20.65,9.52-12.93,0-18.15-8.19-18.15-14.62,0-12.07,12-19.94,38.56-19.6V376.5c0-4-.95-15.95-16.14-15.84a30.19,30.19,0,0,0-16.37,4.43l-1.9-3.88a36.17,36.17,0,0,1,18.75-5.09c19.34,0,21.47,13.95,21.47,22.37v19.27a78.29,78.29,0,0,0,1,12.85ZM218,382.26c-15.07-.45-32.39,1.77-32.39,14.06,0,7.54,5.81,11.19,12.45,11.19,11,0,17-6.09,19.23-10.85a8.32,8.32,0,0,0,.71-3.11Z" transform="translate(-32.89 -39.47)"/><path class="cls-1" d="M243.72,331.31h5.82v79.3h-5.82Z" transform="translate(-32.89 -39.47)"/><path class="cls-1" d="M270.77,384c0,15.51,10.56,23.26,24.09,23.26,9.85,0,14.59-1.77,18.27-3.32l1.54,4.32c-2,.88-8.42,3.65-20.4,3.65-17.68,0-29.19-11.19-29.19-26.58,0-18.06,12.34-29.24,28.47-29.24,21.12,0,24.8,17.5,24.8,24.59a12.22,12.22,0,0,1-.24,3.32Zm41.53-4.32c.12-5.54-2.37-19.16-19.46-19.16-14.47,0-20.53,11.07-21.71,19.16Z" transform="translate(-32.89 -39.47)"/><path class="cls-1" d="M331.76,403.41a29,29,0,0,0,14.23,4c10,0,14.36-4.87,14.36-10.3,0-6.2-4.51-9.19-13.41-11.85-10.32-3.1-15.42-8.09-15.42-14.4,0-7.53,6.41-14.73,18.75-14.73A26.23,26.23,0,0,1,364,359.66l-2.26,4.43a22.78,22.78,0,0,0-12.57-3.43c-7.83,0-12,4.43-12,9.52,0,6,4.87,8.31,13.29,11,10.44,3.32,15.55,7.53,15.55,15.51,0,8.64-7.6,15.28-20.53,15.28a33.66,33.66,0,0,1-15.9-3.88Z" transform="translate(-32.89 -39.47)"/><path class="cls-1" d="M382.54,331.31h5.81v36.88h.24a21.81,21.81,0,0,1,8.78-8.64,26.16,26.16,0,0,1,12.81-3.43c5.46,0,22.19,2.21,22.19,24.14v30.35h-5.82V380.48c0-10.3-4.74-19.6-17.91-19.6A21.48,21.48,0,0,0,389.3,373.4a13.23,13.23,0,0,0-.95,5.64v31.57h-5.81Z" transform="translate(-32.89 -39.47)"/><path class="cls-2" d="M100.16,407.62c-4.51,2.11-13.52,4.32-25,4.32-21.6,0-42.24-12.29-42.24-38.32,0-19.5,15.42-39,45.44-39,12.1,0,18.87,2.55,21.6,3.76L98,342.94c-4.75-2.22-11.87-3.77-19.34-3.77-26,0-39.75,14.73-39.75,34.89,0,18.39,13.17,33.23,38.32,33.23,7.83,0,15.67-1.44,21.12-4Z" transform="translate(-32.89 -39.47)"/><path class="cls-2" d="M114.75,331.31h5.82v36.88h.24a21.81,21.81,0,0,1,8.78-8.64,26.16,26.16,0,0,1,12.81-3.43c5.46,0,22.19,2.21,22.19,24.14v30.35h-5.82V380.48c0-10.3-4.74-19.6-17.91-19.6a21.48,21.48,0,0,0-19.34,12.52,13.23,13.23,0,0,0-1,5.64v31.57h-5.82Z" transform="translate(-32.89 -39.47)"/><path class="cls-2" d="M219.4,410.61l-1-8.19h-.23c-3,4.09-10.21,9.52-20.65,9.52-12.93,0-18.15-8.19-18.15-14.62,0-12.07,12-19.94,38.56-19.6V376.5c0-4-.95-15.95-16.14-15.84a30.19,30.19,0,0,0-16.37,4.43l-1.9-3.88a36.17,36.17,0,0,1,18.75-5.09c19.34,0,21.47,13.95,21.47,22.37v19.27a78.29,78.29,0,0,0,1,12.85ZM218,382.26c-15.07-.45-32.39,1.77-32.39,14.06,0,7.54,5.81,11.19,12.45,11.19,11,0,17-6.09,19.23-10.85a8.32,8.32,0,0,0,.71-3.11Z" transform="translate(-32.89 -39.47)"/><path class="cls-2" d="M243.72,331.31h5.82v79.3h-5.82Z" transform="translate(-32.89 -39.47)"/><path class="cls-2" d="M270.77,384c0,15.51,10.56,23.26,24.09,23.26,9.85,0,14.59-1.77,18.27-3.32l1.54,4.32c-2,.88-8.42,3.65-20.4,3.65-17.68,0-29.19-11.19-29.19-26.58,0-18.06,12.34-29.24,28.47-29.24,21.12,0,24.8,17.5,24.8,24.59a12.22,12.22,0,0,1-.24,3.32Zm41.53-4.32c.12-5.54-2.37-19.16-19.46-19.16-14.47,0-20.53,11.07-21.71,19.16Z" transform="translate(-32.89 -39.47)"/><path class="cls-2" d="M331.76,403.41a29,29,0,0,0,14.23,4c10,0,14.36-4.87,14.36-10.3,0-6.2-4.51-9.19-13.41-11.85-10.32-3.1-15.42-8.09-15.42-14.4,0-7.53,6.41-14.73,18.75-14.73A26.23,26.23,0,0,1,364,359.66l-2.26,4.43a22.78,22.78,0,0,0-12.57-3.43c-7.83,0-12,4.43-12,9.52,0,6,4.87,8.31,13.29,11,10.44,3.32,15.55,7.53,15.55,15.51,0,8.64-7.6,15.28-20.53,15.28a33.66,33.66,0,0,1-15.9-3.88Z" transform="translate(-32.89 -39.47)"/><path class="cls-2" d="M382.54,331.31h5.81v36.88h.24a21.81,21.81,0,0,1,8.78-8.64,26.16,26.16,0,0,1,12.81-3.43c5.46,0,22.19,2.21,22.19,24.14v30.35h-5.82V380.48c0-10.3-4.74-19.6-17.91-19.6A21.48,21.48,0,0,0,389.3,373.4a13.23,13.23,0,0,0-.95,5.64v31.57h-5.81Z" transform="translate(-32.89 -39.47)"/><path class="cls-3" d="M247.16,475.41c-1-16.28-2.24-37.44-2.24-49.16h-.28c-3.77,11.72-8.11,24.42-14.12,41l-21.8,59.91h-5.17l-20.4-59.1C177.28,451,172.94,438,169.87,426.25h-.28c-.42,12.69-1.12,32.72-2.38,50.79l-3.35,50.14h-6.71l7.55-109.73h7.83l22.64,65.45c4.75,13.67,8.38,25.07,11.18,35h.28c2.51-9.28,6.29-20.35,11.6-34.84L242,417.45h8.11l6.71,109.73h-6.71Z" transform="translate(-32.89 -39.47)"/><path class="cls-3" d="M280,488.11c0,22.79,12.44,34.18,28.37,34.18,11.6,0,17.19-2.6,21.52-4.88l1.82,6.35c-2.38,1.3-9.92,5.37-24,5.37-20.82,0-34.38-16.44-34.38-39.07,0-26.53,14.54-43,33.54-43,24.88,0,29.21,25.72,29.21,36.14a22.53,22.53,0,0,1-.28,4.89Zm48.91-6.35c.14-8.14-2.79-28.17-22.92-28.17-17.05,0-24.17,16.28-25.57,28.17Z" transform="translate(-32.89 -39.47)"/><path class="cls-3" d="M351.68,449l20,52.25a160.58,160.58,0,0,1,5.45,16.45h.28c1.54-4.89,3.36-10.75,5.59-17.1L401.71,449h7.41L385.36,512.2c-9.22,24.75-15.23,37-24.18,44.44-5.73,4.89-10.9,6.68-12.3,7L347.07,557a32.1,32.1,0,0,0,12.3-7.65c3.49-3.42,8.66-9.93,12.85-21a10.07,10.07,0,0,0,.84-3.09,11.5,11.5,0,0,0-1-3.59L344.27,449Z" transform="translate(-32.89 -39.47)"/><path class="cls-3" d="M481.23,410.62v97.67c0,6.35.14,12.54.56,18.89H475.5l-.42-16.28h-.28a28.41,28.41,0,0,1-27.11,18.23c-18.87,0-32.28-17.58-32.28-39.23-.14-25.4,14.95-42.82,33.82-42.82,14,0,21.94,8.63,24.87,15h.28V410.62Zm-6.85,69.84a35.66,35.66,0,0,0-.84-7.66c-2.93-10.58-11.6-19.21-24.17-19.21-15.94,0-27.12,14.17-27.12,35.33,0,17.58,8.81,33.7,27,33.7,11.46,0,21.52-9.12,24.31-21.49a25.78,25.78,0,0,0,.84-6.84Z" transform="translate(-32.89 -39.47)"/><path class="cls-3" d="M570.11,487.13c0,29.3-19.57,42-36.06,42-20,0-34.52-17.09-34.52-40.21,0-26.05,16.77-41.84,35.5-41.84C556.55,447.08,570.11,464.83,570.11,487.13Zm-63.73,1.3c0,21.82,13.56,34.19,28.09,34.19,14.82,0,28.79-12.54,28.79-35,0-14.82-8.52-34-28.23-34C516,453.59,506.38,470.2,506.38,488.43Z" transform="translate(-32.89 -39.47)"/><path class="cls-3" d="M652.7,487.13c0,29.3-19.56,42-36.06,42-20,0-34.52-17.09-34.52-40.21,0-26.05,16.78-41.84,35.5-41.84C639.14,447.08,652.7,464.83,652.7,487.13ZM589,488.43c0,21.82,13.56,34.19,28.09,34.19,14.82,0,28.79-12.54,28.79-35,0-14.82-8.52-34-28.23-34C598.62,453.59,589,470.2,589,488.43Z" transform="translate(-32.89 -39.47)"/><path class="cls-3" d="M671,467.92c0-6.35-.14-12.53-.56-18.88h6.43l.56,15.63h.28c4-9.61,13.56-17.59,25.86-17.59,6.15,0,26.13,3.26,26.13,35.66v44.44h-6.85V482.74c0-15.31-5.73-28.82-21.1-28.82-10.76,0-19.71,8.63-22.78,18.56a25.59,25.59,0,0,0-1.12,7v47.7H671Z" transform="translate(-32.89 -39.47)"/><path class="cls-4" d="M574.77,39.47C442.91,39.47,336,129.13,336,239.72a172,172,0,0,0,17.85,76.07c20.83-10.62,42.89-19,66.51-16.58,35.94,3.72,62.89,31.46,76.63,64.34,9.16,21.93,12,45.21,11.55,68.62A281.81,281.81,0,0,0,574.77,440c131.85,0,238.74-89.66,238.74-200.26S706.62,39.47,574.77,39.47Z" transform="translate(-32.89 -39.47)"/><path class="cls-3" d="M688.84,106.13c-9.81,8.49-11.52,21.52-5.51,32.63,2.07,3.81.94,8.35-2.5,11.33l-35.19,30.47a13.37,13.37,0,0,1-14.9,1.36,76,76,0,0,0-43.18-9.14c-5.19.47-10.13-2-12.21-6.1l-1.83-3.63a9.62,9.62,0,0,1,2.59-11.8h0c8.76-7.58,11.38-19,6.82-29.9a6.47,6.47,0,0,0-7.32-3.45c-3,.71-4.45,3.4-3.35,6A17.09,17.09,0,0,1,567.69,144c-8.64,7.48-23.41,6.92-32.92-1.25s-10.22-20.9-1.58-28.38c5.88-5.1,14.8-6.64,23.28-4,3,.94,6.15-.37,7-2.91s-1-5.36-4-6.3c-12.6-3.88-25.88-1.59-34.64,6-12.86,11.14-11.8,30.09,2.35,42.25a41,41,0,0,0,25,9.66c4.5.17,8.57,2.35,10.37,5.91l2.11,4.2c2.24,4.43.36,9.49-4.24,12.26a54,54,0,0,0-7.52,5.44A47.59,47.59,0,0,0,539.31,206c-1.8,4.74-7.34,7.63-13.06,6.88l-66.8-8.7a11.48,11.48,0,0,1-9.85-7.94,41.82,41.82,0,0,0-13.36-20.27c-18.33-15.75-46.79-16.83-63.45-2.41s-15.28,39,3,54.71,46.8,16.83,63.45,2.41a34.06,34.06,0,0,0,8.26-10.54c2.13-4.28,7.35-6.76,12.69-6.07l67,8.73c5.1.67,9.14,4.07,10,8.46,2.23,12,8.92,23.7,20,33.2a74.48,74.48,0,0,0,27.73,14.84c4.94,1.42,8.24,5.42,8.16,9.91l-.65,32.45c-.1,4.93-4.08,9.29-9.69,10.19A49.56,49.56,0,0,0,558,343c-19.56,16.93-18,45.75,3.58,64.24s55,19.77,74.5,2.83,18-45.75-3.58-64.24a60.82,60.82,0,0,0-20.94-11.65c-4.74-1.54-7.87-5.44-7.78-9.8l.66-33c.09-5,4.47-9,10.18-9.68a64.41,64.41,0,0,0,21.47-6.44,4.31,4.31,0,0,0,1.46-6.68,6.56,6.56,0,0,0-7.92-1.88c-19.85,10.17-46.56,6.76-64.79-8.89-21.34-18.34-22.93-46.92-3.54-63.71s52.53-15.53,73.87,2.81c18.41,15.81,22.15,38.87,10.57,55.84-1.52,2.24-.53,5.29,2.21,6.82s6.22.95,7.74-1.29a45.6,45.6,0,0,0,5-9.64c1.77-4.71,7.36-7.52,13-6.78l25.18,3.28c4,.52,7.48,2.64,9.07,5.81a23.33,23.33,0,0,0,5.69,7.16c9.71,8.35,24.8,8.92,33.62,1.28s8.11-20.65-1.61-29-24.8-8.92-33.63-1.27a19.16,19.16,0,0,0-2.1,2.13,12.75,12.75,0,0,1-11.35,4.06L672.78,232c-5.13-.67-9.14-4.13-10-8.55a55.08,55.08,0,0,0-10.18-22.63,9.32,9.32,0,0,1,1.46-13l35.18-30.46a13.12,13.12,0,0,1,13.13-2.21c12.89,5.14,28,3.62,37.8-4.87,12.86-11.14,11.8-30.09-2.35-42.25s-36.14-13-49-1.87Zm-258,117.28c-12.43,10.76-33.68,10-47.37-1.8s-14.7-30.08-2.27-40.85,33.68-9.95,47.37,1.8S443.3,212.64,430.86,223.41ZM627.63,402.82c-15.33,13.27-41.54,12.28-58.42-2.22s-18.14-37.1-2.81-50.38,41.55-12.28,58.43,2.22S643,389.54,627.63,402.82Zm92.84-166.47c4.6-4,12.47-3.68,17.54.67s5.45,11.14.85,15.13-12.48,3.69-17.55-.67S715.86,240.34,720.47,236.35ZM731.76,143c-8.64,7.48-23.4,6.92-32.92-1.25s-10.22-20.91-1.58-28.39,23.41-6.92,32.92,1.25S740.4,135.53,731.76,143Z" transform="translate(-32.89 -39.47)"/><path class="cls-3" d="M420.57,203.9a6.83,6.83,0,0,0,.42-4.36c-.37-1.75-1.18-2.87-4.22-6a16.51,16.51,0,0,1-3.3-4l-.12-.26a4.82,4.82,0,0,1-.73-2.48c.12-.66-.47-1.34-1.33-1.55a1.7,1.7,0,0,0-2,.78l-8.46,21.78a11.72,11.72,0,0,0-4.53-2.43c-4.52-1.3-9.06-.17-10.1,2.52s1.78,5.95,6.3,7.26,9.05.18,10.1-2.52l5.53-14.24c2.19,1.41,5.21,4.27,4.7,8.77-.3.16-1,4.24-.24,3.94S419.59,205.92,420.57,203.9Z" transform="translate(-32.89 -39.47)"/><path class="cls-3" d="M624.67,388.06h0l-10.27-6.74a7.06,7.06,0,0,0-1.67-3.25c-1-1.4-8.86-13-11.27-16.58a2.49,2.49,0,0,0-2.75-1,10.13,10.13,0,0,1-5.77.05,2.47,2.47,0,0,0-1.08-.09,12.56,12.56,0,0,1-1.13-2.72c-.61-1.81-1.23-3.68-3-4.85l-4-2.69a3.35,3.35,0,0,0-3.9,0c-14.67,11-14.35,10.85-14.36,10.87a4.53,4.53,0,0,0-1.4,5.06c1,3.68,5.21,7.39,7.6,9.28,3.57,2.82,7.53,5,10.08,5.62a3.84,3.84,0,0,0,2.7-.15A8.22,8.22,0,0,1,587,382a8,8,0,0,1,1.57,1.38c-.24,1.25.67,2.86,2.82,5a39.77,39.77,0,0,0,5.08,4.23c6.67,4.54,17.25,8.52,23.68,7.47,2.31-.37,6.84-2.22,7-4.69h0l.12-2.44A5.69,5.69,0,0,0,624.67,388.06Zm-25.26-25.48a.18.18,0,0,1,.2,0l1.08,1.59-1.44.54a1,1,0,0,0-.57,1.4,1.16,1.16,0,0,0,1.45.63l1.84-.69,1.55,2.3-1.42.53a1,1,0,0,0-.58,1.4A1.18,1.18,0,0,0,603,371l1.82-.69,1.52,2.24,0,0,0,0-1.39.52a1,1,0,0,0-.58,1.4,1.16,1.16,0,0,0,1.46.63l1.79-.67c.52.76,1.09,1.62,1.56,2.3l-1.56.58a1,1,0,0,0-.58,1.4,1.17,1.17,0,0,0,1.46.64l2-.74a18.61,18.61,0,0,1,1.66,2.53,4,4,0,0,1-1.25.27,32.73,32.73,0,0,1-4.17.06,1.24,1.24,0,0,1-.94-.54c-6.66-9.9-10.69-16.05-12-18A12.84,12.84,0,0,0,599.41,362.58ZM583.29,379c-1.86.63-11.41-4.89-15.54-10.57-3.13-4.3-.78-5.51-.72-5.7.32-.26.59-.48.81-.63.41-.28.63-.39,1.78.35a93.23,93.23,0,0,1,7.5,6.09c1.63,1.39,3.48,3,5.7,4.84A4.14,4.14,0,0,1,583.29,379ZM578.53,367a91.65,91.65,0,0,0-7.77-6.28c-.21-.14-.41-.26-.61-.37L581.3,352a1.13,1.13,0,0,1,1.3,0l3.95,2.69c1.07.73,1.55,2.16,2.05,3.67a11,11,0,0,0,2.09,4.16,56.62,56.62,0,0,1,3.43,4.9l-.52.08c-3.74.56-8,1.19-10.1,3.72C581.6,369.57,580,368.19,578.53,367Zm9.63,13.31a11.21,11.21,0,0,0-2.28-1.18,6.45,6.45,0,0,0-.76-6.33c1.6-2.05,5.48-2.64,8.92-3.15l1.42-.22c1.86,2.8,4.58,6.89,8.49,12.7a3.72,3.72,0,0,0,.68.75,6.07,6.07,0,0,1-1,2.78,6.17,6.17,0,0,1-.44.57c-4.19-2.36-5.43-3.4-8.42-4.07a10.69,10.69,0,0,0-4.7-.22A10.54,10.54,0,0,0,588.16,380.26Zm36.7,15c0,.16-.33.73-1.69,1.49a12.33,12.33,0,0,1-3.25,1.23c-5.74,1.12-16-2.79-22.29-7a37.17,37.17,0,0,1-4.49-3.71c-2.09-2.05-2.38-3-2.42-3.22a8.93,8.93,0,0,1,3.64.26c2.68.59,3.67,1.55,8.41,4.18a1.12,1.12,0,0,0,.24.13c16.83,9.3,20.74,6.47,21.81,6.6l0,.06S624.87,395.22,624.86,395.22Zm.13-2.43v.2a6.81,6.81,0,0,0-1.89.2c-2.5.4-7.61-.35-17.93-5.91a3.79,3.79,0,0,0,.3-.4,8.23,8.23,0,0,0,1.3-3.22,28.2,28.2,0,0,0,5.06-.15,5.2,5.2,0,0,0,1.41-.4l10.25,6.72A3.44,3.44,0,0,1,625,392.79Z" transform="translate(-32.89 -39.47)"/><path class="cls-3" d="M628.44,255.33A63.07,63.07,0,0,0,636,244a43.82,43.82,0,0,0,4.13-11.05c2.13-12.56-5.41-15.59-14.5-19.13a73.9,73.9,0,0,1-8.8-4l-.83-.57a65,65,0,0,1-6.47-6.51c-6.07-6.81-11.09-12.55-24.89-7.94a54.38,54.38,0,0,0-11.6,5.91,72.54,72.54,0,0,0-11.17,8.82c-3.46,3.43-5.43,6.29-6.19,8.73a6.08,6.08,0,0,0,1.08,5.88,11,11,0,0,0,5.76,3.17c4.27,1.12,10.19,1.33,16.49,1,4.51-.31,10.29,2,15.1,5.29s8.66,7.68,9.29,11.54c1,5.37,2.55,10.31,4.76,13.65a10.79,10.79,0,0,0,4.86,4.15,8.93,8.93,0,0,0,6.94-.45C622.45,261.35,625.25,259.06,628.44,255.33ZM618,259.54a4.72,4.72,0,0,1-3.61.36,7.15,7.15,0,0,1-3.08-2.69c-2-3-3.4-7.48-4.27-12.41-.7-4.82-5-10-10.6-13.81s-12.34-6.34-17.9-6.07c-5.85.29-11.31.17-15-.87-1.72-.5-3.07-1.09-3.73-2a3.17,3.17,0,0,1-.38-3.11c.56-1.78,2.23-4.17,5.36-7.25a66.48,66.48,0,0,1,10.64-8.39,51.31,51.31,0,0,1,10.77-5.46c11-3.73,15.23,1,20.25,6.78a57.77,57.77,0,0,0,6.9,6.93l.17.12.91.63.17.11a67.43,67.43,0,0,0,9.44,4.35c7.53,3,13.93,5.51,12.11,15.54a36.17,36.17,0,0,1-3.8,10.26,64,64,0,0,1-7.15,10.8C622.44,256.67,620.11,258.6,618,259.54Z" transform="translate(-32.89 -39.47)"/><path class="cls-3" d="M599.11,206.39a7.33,7.33,0,0,0-4-1.13,5,5,0,0,0-2.09-2.93l-.12-.07a6.81,6.81,0,0,0-4.53-1.08,6.66,6.66,0,0,0-4.13,1.93,4.71,4.71,0,0,0-1.37,3.36,6.66,6.66,0,0,0-3.61,1.79l-.1.1a4.52,4.52,0,0,0-1.31,3.8,5.08,5.08,0,0,0,2.27,3.45,6.67,6.67,0,0,0,4.11,1.12,4.68,4.68,0,0,0,2.21,3,6.86,6.86,0,0,0,4.53,1.08,6.77,6.77,0,0,0,4.13-1.93,4.94,4.94,0,0,0,1.37-3.37,5.93,5.93,0,0,0,3.6-1.87,4.5,4.5,0,0,0,1.32-3.81A5.08,5.08,0,0,0,599.11,206.39ZM594.42,216a2.44,2.44,0,0,1-1.63-.44l-1.16-.8a2.23,2.23,0,0,0-2.81.23l-.83.91a2.18,2.18,0,0,1-1.47.7,2.45,2.45,0,0,1-1.63-.44,1.86,1.86,0,0,1-.86-1.28,1.63,1.63,0,0,1,.47-1.39l.9-1a1.56,1.56,0,0,0-.35-2.41l-1.16-.8a1.87,1.87,0,0,1-.86-1.27,1.62,1.62,0,0,1,.41-1.32,2.14,2.14,0,0,1,1.46-.7h.15a2.8,2.8,0,0,1,1.48.45l1.17.8a2.22,2.22,0,0,0,2.8-.23l.9-1a2.2,2.2,0,0,1,1.46-.7,2.49,2.49,0,0,1,1.64.45,1.83,1.83,0,0,1,.85,1.27l0,.13a1.88,1.88,0,0,1-.49,1.26l-.9,1a1.57,1.57,0,0,0,.35,2.41l1.16.8a1.84,1.84,0,0,1,.86,1.28,1.58,1.58,0,0,1-.47,1.38A2.14,2.14,0,0,1,594.42,216Z" transform="translate(-32.89 -39.47)"/><ellipse class="cls-3" cx="624.11" cy="226.7" rx="3.15" ry="3.68" transform="translate(309.56 788.54) rotate(-84.86)"/><ellipse class="cls-3" cx="614.95" cy="236.57" rx="3.15" ry="3.68" transform="translate(291.39 788.41) rotate(-84.86)"/><ellipse class="cls-3" cx="613.64" cy="227.57" rx="3.15" ry="3.68" transform="translate(299.16 778.9) rotate(-84.86)"/><ellipse class="cls-3" cx="625.42" cy="235.7" rx="3.15" ry="3.68" transform="translate(301.79 798.04) rotate(-84.86)"/></svg>